<svg width="6778" height="3739" viewBox="0 0 6778 3739" fill="none" xmlns="http://www.w3.org/2000/svg">
<path d="M339.5 1689L633.516 2151H45.4844L339.5 1689Z" fill="#D6D5A8"/>
<path d="M1556.5 1636L1850.52 2098H1262.48L1556.5 1636Z" fill="#D6D5A8"/>
<path d="M337.484 2613.48L50.4347 2150.37L624.582 2150.4L337.484 2613.48Z" fill="#D6D5A8"/>
<path d="M1554.48 2560.48L1267.43 2097.37L1841.58 2097.4L1554.48 2560.48Z" fill="#D6D5A8"/>
<path d="M337.484 2613.48L50.4347 2150.37L624.582 2150.4L337.484 2613.48Z" fill="#D6D5A8"/>
<path d="M1554.48 2560.48L1267.43 2097.37L1841.58 2097.4L1554.48 2560.48Z" fill="#D6D5A8"/>
<rect x="283" y="601" width="112" height="1274" rx="50" fill="#D6D5A8"/>
<rect x="1500" y="548" width="112" height="1274" rx="50" fill="#D6D5A8"/>
<rect x="283" y="601" width="112" height="1274" rx="50" fill="#D6D5A8"/>
<rect x="1500" y="548" width="112" height="1274" rx="50" fill="#D6D5A8"/>
<rect x="4056" y="607" width="112" height="2901" rx="50" fill="#D6D5A8"/>
<rect x="6232" y="1516" width="112" height="346" rx="50" fill="#D6D5A8"/>
<rect x="6233" y="2305" width="112" height="346" rx="50" fill="#D6D5A8"/>
<rect x="1556.37" y="555.243" width="112" height="1274" rx="50" transform="rotate(90.3471 1556.37 555.243)" fill="#D6D5A8"/>
<rect x="4168.09" y="570.836" width="112" height="2614.46" rx="50" transform="rotate(90.3471 4168.09 570.836)" fill="#D6D5A8"/>
<rect x="6232.39" y="584.185" width="112" height="2176.75" rx="50" transform="rotate(90.3471 6232.39 584.185)" fill="#D6D5A8"/>
<rect x="6289.39" y="3462.19" width="112" height="2176.75" rx="50" transform="rotate(90.3471 6289.39 3462.19)" fill="#D6D5A8"/>
<rect x="5739.36" y="1192.57" width="83.925" height="906.868" rx="41.9625" transform="rotate(90.3471 5739.36 1192.57)" fill="#D6D5A8"/>
<rect width="85.3226" height="293.448" rx="42.6613" transform="matrix(-0.6055 0.795845 -0.698058 -0.716041 5748.51 1582.1)" fill="#D6D5A8"/>
<rect width="84.9127" height="318.286" rx="42.4564" transform="matrix(-0.630849 -0.775905 0.673957 -0.738771 5716.26 1630.93)" fill="#D6D5A8"/>
<rect width="78.0416" height="386.035" rx="39.0208" transform="matrix(-0.999537 -0.0304214 0.0225688 -0.999745 5740.87 1582.31)" fill="#D6D5A8"/>
<rect width="74.7062" height="265.277" rx="37.3531" transform="matrix(-0.702579 0.711605 -0.784509 -0.620117 3700.6 1656.84)" fill="#D6D5A8"/>
<rect width="74.9817" height="285.279" rx="37.4909" transform="matrix(-0.725799 -0.687906 0.76393 -0.645299 3667.84 1695.07)" fill="#D6D5A8"/>
<rect width="79.2717" height="302.277" rx="39.6359" transform="matrix(-0.999725 -0.0234472 0.0292822 -0.999571 3692.84 1657.01)" fill="#D6D5A8"/>
<rect width="41.514" height="147.358" rx="20.757" transform="matrix(-0.710545 -0.703651 0.623698 -0.781665 1935.9 2190.68)" fill="#D6D5A8"/>
<rect width="41.6628" height="158.485" rx="20.8314" transform="matrix(0.691246 -0.722619 0.64413 0.764916 1914.68 2172.44)" fill="#D6D5A8"/>
<rect width="43.9818" height="168.232" rx="21.9909" transform="matrix(0.0265797 -0.999647 0.99948 0.0322506 1935.82 2186.37)" fill="#D6D5A8"/>
<rect width="63.5964" height="223.23" rx="31.7982" transform="matrix(-0.668362 0.743836 -0.754983 -0.655744 1989.04 1602.37)" fill="#D6D5A8"/>
<rect width="63.632" height="240.795" rx="31.816" transform="matrix(-0.69261 -0.721312 0.732939 -0.680294 1962.51 1636.39)" fill="#D6D5A8"/>
<rect width="64.2" height="268.96" rx="32.1" transform="matrix(-0.999668 -0.0257624 0.026651 -0.999645 1982.76 1602.52)" fill="#D6D5A8"/>
<rect width="60.5171" height="209.914" rx="30.2585" transform="matrix(0.642221 -0.76652 0.713606 0.700547 600.451 1281.42)" fill="#D6D5A8"/>
<rect width="60.3605" height="227.155" rx="30.1802" transform="matrix(0.64734 0.762202 -0.708565 0.705646 624.767 1248)" fill="#D6D5A8"/>
<rect width="57.7898" height="266.577" rx="28.8949" transform="matrix(0.999144 0.0413679 -0.0372041 0.999308 606.109 1281.34)" fill="#D6D5A8"/>
<rect x="4171.09" y="3448.84" width="112" height="2614.46" rx="50" transform="rotate(90.3471 4171.09 3448.84)" fill="#D6D5A8"/>
<rect x="1555.66" y="3448.72" width="112" height="1274" rx="50" transform="rotate(90.3471 1555.66 3448.72)" fill="#D6D5A8"/>
<rect x="283" y="2499" width="112" height="1062" rx="50" fill="#D6D5A8"/>
<rect x="1500" y="2446" width="112" height="1062" rx="50" fill="#D6D5A8"/>
<rect x="283" y="2499" width="112" height="1062" rx="50" fill="#D6D5A8"/>
<rect x="1500" y="2446" width="112" height="1107" rx="50" fill="#D6D5A8"/>
<rect x="3912" y="1689" width="400" height="872" fill="#D6D5A8"/>
<rect x="5368.67" y="488.242" width="299.414" height="876.9" transform="rotate(90.3426 5368.67 488.242)" fill="#D6D5A8"/>
<ellipse cx="6232" cy="634" rx="236" ry="242" fill="#D6D5A8"/>
<ellipse cx="6289" cy="3497" rx="236" ry="242" fill="#D6D5A8"/>
<path d="M6375.4 1987.6V1993.6C6371 1995.2 6366.3 1998.7 6361.3 2004.1C6356.5 2009.5 6352 2017.9 6347.8 2029.3L6284.5 2200.6C6282.9 2200.4 6281.2 2200.3 6279.4 2200.3C6277.6 2200.3 6275.8 2200.3 6274 2200.3C6272.4 2200.3 6270.7 2200.3 6268.9 2200.3C6267.1 2200.3 6265.4 2200.4 6263.8 2200.6L6187.3 2012.8C6184.5 2005.6 6181.4 2000.7 6178 1998.1C6174.6 1995.3 6171.4 1993.8 6168.4 1993.6V1987.6C6174.4 1987.8 6181.4 1988 6189.4 1988.2C6197.6 1988.4 6205.8 1988.5 6214 1988.5C6223.2 1988.5 6231.8 1988.4 6239.8 1988.2C6248 1988 6254.6 1987.8 6259.6 1987.6V1993.6C6253.2 1993.8 6248.2 1994.6 6244.6 1996C6241 1997.2 6239 1999.6 6238.6 2003.2C6238.2 2006.6 6239.4 2011.8 6242.2 2018.8L6296.8 2157.7L6290.5 2165.2L6331.9 2053.6C6337.3 2038.6 6340.1 2026.8 6340.3 2018.2C6340.5 2009.6 6338.4 2003.4 6334 1999.6C6329.6 1995.8 6323.3 1993.8 6315.1 1993.6V1987.6C6321.9 1987.8 6328.3 1988 6334.3 1988.2C6340.3 1988.4 6346.4 1988.5 6352.6 1988.5C6357 1988.5 6361.1 1988.4 6364.9 1988.2C6368.9 1988 6372.4 1987.8 6375.4 1987.6Z" fill="#D6D5A8"/>
<g clip-path="url(#clip0_202_166)">
<path d="M6310.1 1437.26C6308.87 1441.07 6305.34 1443.49 6301.54 1443.49C6300.62 1443.49 6299.69 1443.35 6298.77 1443.06C6290.81 1440.48 6286.68 1440.48 6278.72 1443.06C6274 1444.59 6268.92 1441.99 6267.39 1437.26C6265.86 1432.54 6268.45 1427.46 6273.18 1425.93C6284.67 1422.21 6292.82 1422.21 6304.31 1425.93C6309.04 1427.46 6311.63 1432.53 6310.1 1437.26ZM6436.23 1325.33C6427.53 1337.94 6412.41 1345.47 6395.8 1345.47C6381.32 1345.47 6365.14 1338.07 6348.01 1330.23C6328.56 1321.34 6308.45 1312.14 6288.75 1312.02C6269.04 1312.14 6248.93 1321.34 6229.48 1330.23C6212.35 1338.07 6196.17 1345.47 6181.7 1345.47C6165.08 1345.47 6149.97 1337.94 6141.26 1325.33C6124.74 1301.4 6137.47 1274.35 6148.69 1250.49C6148.69 1250.49 6206.72 1131.8 6209.78 1125.38C6233.56 1075.52 6248.54 1047.02 6259.55 1039.25C6268.13 1033.2 6278.23 1030 6288.75 1030C6299.27 1030 6309.36 1033.2 6317.94 1039.25C6328.96 1047.02 6343.93 1075.52 6367.71 1125.39C6370.78 1131.8 6428.8 1250.49 6428.8 1250.49C6440.03 1274.35 6452.75 1301.4 6436.23 1325.33ZM6412.51 1258.15C6412.51 1258.15 6374.53 1179.86 6359.24 1149.26C6357.24 1145.24 6354.56 1139.63 6351.47 1133.13C6341.1 1111.4 6316.82 1060.49 6307.56 1053.95C6302.04 1050.06 6295.53 1048 6288.75 1048C6281.96 1048 6275.45 1050.06 6269.93 1053.96C6260.67 1060.49 6236.4 1111.39 6226.03 1133.13C6222.93 1139.63 6164.98 1258.15 6164.98 1258.15C6154.93 1279.51 6145.44 1299.69 6156.08 1315.11C6161.42 1322.85 6171 1327.47 6181.7 1327.47C6192.25 1327.47 6206.7 1320.86 6222 1313.86C6242.2 1304.62 6265.11 1294.15 6288.7 1294.02C6288.71 1294.02 6288.73 1294.02 6288.75 1294.02C6288.76 1294.02 6288.78 1294.02 6288.8 1294.02C6312.39 1294.15 6335.29 1304.62 6355.5 1313.86C6370.79 1320.86 6385.24 1327.47 6395.8 1327.47C6406.5 1327.47 6416.07 1322.85 6421.42 1315.11C6432.05 1299.7 6422.56 1279.52 6412.51 1258.15ZM6360.08 1392.07C6357.16 1399.38 6351.44 1405.18 6344.38 1407.98C6341.22 1409.23 6337.92 1409.85 6334.64 1409.85C6330.84 1409.85 6327.05 1409.02 6323.48 1407.36C6294.26 1393.7 6283.23 1393.7 6254.03 1407.35C6247.36 1410.45 6239.93 1410.68 6233.12 1407.98C6226.06 1405.18 6220.33 1399.38 6217.41 1392.07C6211.6 1377.54 6218 1360.55 6231.67 1354.18C6275.94 1333.49 6301.55 1333.49 6345.82 1354.18C6359.5 1360.55 6365.89 1377.55 6360.08 1392.07ZM6338.22 1370.5C6338.22 1370.5 6338.21 1370.5 6338.21 1370.5C6298.92 1352.13 6278.58 1352.13 6239.28 1370.5C6234.2 1372.86 6231.84 1379.68 6234.12 1385.38C6235.23 1388.16 6237.23 1390.25 6239.75 1391.24C6241.28 1391.85 6243.69 1392.31 6246.42 1391.04C6263.42 1383.09 6276.08 1379.11 6288.74 1379.11C6301.41 1379.11 6314.07 1383.09 6331.08 1391.04C6333.81 1392.31 6336.21 1391.85 6337.74 1391.24C6340.26 1390.25 6342.26 1388.16 6343.37 1385.38C6345.65 1379.68 6343.3 1372.86 6338.22 1370.5Z" fill="#D6D5A8"/>
</g>
<g clip-path="url(#clip1_202_166)">
<path d="M6267.7 2776.37C6268.94 2772.57 6272.47 2770.15 6276.27 2770.15C6277.19 2770.15 6278.12 2770.29 6279.04 2770.59C6287 2773.17 6291.12 2773.18 6299.09 2770.61C6303.82 2769.08 6308.89 2771.68 6310.42 2776.41C6311.94 2781.14 6309.35 2786.21 6304.62 2787.74C6293.12 2791.44 6284.97 2791.44 6273.49 2787.71C6268.76 2786.18 6266.17 2781.1 6267.7 2776.37ZM6141.49 2888.21C6150.2 2875.61 6165.32 2868.09 6181.94 2868.1C6196.41 2868.12 6212.59 2875.53 6229.71 2883.38C6249.15 2892.28 6269.26 2901.5 6288.96 2901.64C6308.67 2901.53 6328.79 2892.35 6348.24 2883.47C6365.38 2875.65 6381.57 2868.26 6396.04 2868.27C6412.66 2868.28 6427.76 2875.82 6436.46 2888.43C6452.96 2912.38 6440.21 2939.42 6428.97 2963.27C6428.97 2963.27 6370.85 3081.92 6367.78 3088.33C6343.97 3138.18 6328.97 3166.66 6317.95 3174.43C6309.37 3180.47 6299.27 3183.66 6288.75 3183.65C6278.23 3183.65 6268.13 3180.44 6259.56 3174.38C6248.55 3166.6 6233.6 3138.09 6209.85 3088.21C6206.8 3081.79 6148.86 2963.05 6148.86 2963.05C6137.66 2939.18 6124.95 2912.13 6141.49 2888.21ZM6165.15 2955.4C6165.15 2955.4 6203.08 3033.72 6218.34 3064.34C6220.34 3068.36 6223.01 3073.97 6226.11 3080.47C6236.46 3102.22 6260.69 3153.14 6269.95 3159.68C6275.47 3163.58 6281.97 3165.65 6288.76 3165.65C6295.55 3165.66 6302.06 3163.6 6307.58 3159.71C6316.85 3153.19 6341.16 3102.3 6351.54 3080.57C6354.65 3074.08 6412.69 2955.6 6412.69 2955.6C6422.75 2934.24 6432.26 2914.07 6421.63 2898.65C6416.3 2890.9 6406.73 2886.28 6396.03 2886.27C6385.47 2886.26 6371.02 2892.86 6355.72 2899.84C6335.5 2909.07 6312.59 2919.52 6289 2919.64C6288.98 2919.64 6288.97 2919.64 6288.95 2919.64C6288.93 2919.64 6288.92 2919.64 6288.9 2919.64C6265.31 2919.49 6242.42 2909 6222.22 2899.74C6206.92 2892.73 6192.48 2886.11 6181.92 2886.11C6171.22 2886.1 6161.64 2890.71 6156.3 2898.44C6145.65 2913.85 6155.12 2934.03 6165.15 2955.4ZM6217.69 2821.53C6220.62 2814.22 6226.35 2808.43 6233.41 2805.64C6236.57 2804.39 6239.86 2803.76 6243.15 2803.77C6246.94 2803.77 6250.74 2804.61 6254.31 2806.27C6283.51 2819.95 6294.54 2819.96 6323.75 2806.33C6330.43 2803.23 6337.85 2803.01 6344.67 2805.72C6351.72 2808.52 6357.44 2814.33 6360.36 2821.64C6366.16 2836.17 6359.75 2853.16 6346.07 2859.52C6301.79 2880.17 6276.18 2880.16 6231.92 2859.43C6218.25 2853.05 6211.87 2836.05 6217.69 2821.53ZM6239.53 2843.12C6239.54 2843.12 6239.54 2843.12 6239.55 2843.12C6278.82 2861.52 6299.16 2861.53 6338.47 2843.2C6343.56 2840.83 6345.92 2834.02 6343.65 2828.32C6342.54 2825.53 6340.54 2823.45 6338.02 2822.45C6336.49 2821.84 6334.09 2821.38 6331.35 2822.65C6314.34 2830.58 6301.68 2834.55 6289.02 2834.54C6276.36 2834.53 6263.7 2830.55 6246.69 2822.58C6243.97 2821.31 6241.56 2821.77 6240.03 2822.37C6237.51 2823.37 6235.51 2825.45 6234.4 2828.23C6232.11 2833.93 6234.46 2840.75 6239.53 2843.12Z" fill="#D6D5A8"/>
</g>
<path d="M987.9 1306.6V1312.6C981.5 1312.8 976.6 1313.6 973.2 1315C970 1316.2 967.9 1318.6 966.9 1322.2C965.9 1325.6 965.4 1331 965.4 1338.4V1487.2C965.4 1494.4 965.9 1499.8 966.9 1503.4C968.1 1507 970.3 1509.4 973.5 1510.6C976.7 1511.8 981.5 1512.6 987.9 1513V1519C982.5 1518.6 975.7 1518.4 967.5 1518.4C959.3 1518.2 951 1518.1 942.6 1518.1C932.8 1518.1 923.7 1518.2 915.3 1518.4C907.1 1518.4 900.4 1518.6 895.2 1519V1513C901.6 1512.6 906.4 1511.8 909.6 1510.6C912.8 1509.4 914.9 1507 915.9 1503.4C917.1 1499.8 917.7 1494.4 917.7 1487.2V1338.4C917.7 1331 917.1 1325.6 915.9 1322.2C914.9 1318.6 912.7 1316.2 909.3 1315C906.1 1313.6 901.4 1312.8 895.2 1312.6V1306.6C900.4 1306.8 907.1 1307 915.3 1307.2C923.7 1307.4 932.8 1307.5 942.6 1307.5C951 1307.5 959.3 1307.4 967.5 1307.2C975.7 1307 982.5 1306.8 987.9 1306.6Z" fill="#D6D5A8"/>
<path d="M1981.9 900.6V906.6C1975.5 906.8 1970.6 907.6 1967.2 909C1964 910.2 1961.9 912.6 1960.9 916.2C1959.9 919.6 1959.4 925 1959.4 932.4V1081.2C1959.4 1088.4 1959.9 1093.8 1960.9 1097.4C1962.1 1101 1964.3 1103.4 1967.5 1104.6C1970.7 1105.8 1975.5 1106.6 1981.9 1107V1113C1976.5 1112.6 1969.7 1112.4 1961.5 1112.4C1953.3 1112.2 1945 1112.1 1936.6 1112.1C1926.8 1112.1 1917.7 1112.2 1909.3 1112.4C1901.1 1112.4 1894.4 1112.6 1889.2 1113V1107C1895.6 1106.6 1900.4 1105.8 1903.6 1104.6C1906.8 1103.4 1908.9 1101 1909.9 1097.4C1911.1 1093.8 1911.7 1088.4 1911.7 1081.2V932.4C1911.7 925 1911.1 919.6 1909.9 916.2C1908.9 912.6 1906.7 910.2 1903.3 909C1900.1 907.6 1895.4 906.8 1889.2 906.6V900.6C1894.4 900.8 1901.1 901 1909.3 901.2C1917.7 901.4 1926.8 901.5 1936.6 901.5C1945 901.5 1953.3 901.4 1961.5 901.2C1969.7 901 1976.5 900.8 1981.9 900.6Z" fill="#D6D5A8"/>
<path d="M2320.6 2245.4V2249.4C2316.33 2249.53 2313.07 2250.07 2310.8 2251C2308.67 2251.8 2307.27 2253.4 2306.6 2255.8C2305.93 2258.07 2305.6 2261.67 2305.6 2266.6V2365.8C2305.6 2370.6 2305.93 2374.2 2306.6 2376.6C2307.4 2379 2308.87 2380.6 2311 2381.4C2313.13 2382.2 2316.33 2382.73 2320.6 2383V2387C2317 2386.73 2312.47 2386.6 2307 2386.6C2301.53 2386.47 2296 2386.4 2290.4 2386.4C2283.87 2386.4 2277.8 2386.47 2272.2 2386.6C2266.73 2386.6 2262.27 2386.73 2258.8 2387V2383C2263.07 2382.73 2266.27 2382.2 2268.4 2381.4C2270.53 2380.6 2271.93 2379 2272.6 2376.6C2273.4 2374.2 2273.8 2370.6 2273.8 2365.8V2266.6C2273.8 2261.67 2273.4 2258.07 2272.6 2255.8C2271.93 2253.4 2270.47 2251.8 2268.2 2251C2266.07 2250.07 2262.93 2249.53 2258.8 2249.4V2245.4C2262.27 2245.53 2266.73 2245.67 2272.2 2245.8C2277.8 2245.93 2283.87 2246 2290.4 2246C2296 2246 2301.53 2245.93 2307 2245.8C2312.47 2245.67 2317 2245.53 2320.6 2245.4ZM2487.48 2299V2305H2387.28V2299H2487.48ZM2487.48 2327V2333H2387.28V2327H2487.48ZM2616.11 2245.4V2249.4C2611.84 2249.53 2608.57 2250.07 2606.31 2251C2604.17 2251.8 2602.77 2253.4 2602.11 2255.8C2601.44 2258.07 2601.11 2261.67 2601.11 2266.6V2365.8C2601.11 2370.6 2601.44 2374.2 2602.11 2376.6C2602.91 2379 2604.37 2380.6 2606.51 2381.4C2608.64 2382.2 2611.84 2382.73 2616.11 2383V2387C2612.51 2386.73 2607.97 2386.6 2602.51 2386.6C2597.04 2386.47 2591.51 2386.4 2585.91 2386.4C2579.37 2386.4 2573.31 2386.47 2567.71 2386.6C2562.24 2386.6 2557.77 2386.73 2554.31 2387V2383C2558.57 2382.73 2561.77 2382.2 2563.91 2381.4C2566.04 2380.6 2567.44 2379 2568.11 2376.6C2568.91 2374.2 2569.31 2370.6 2569.31 2365.8V2266.6C2569.31 2261.67 2568.91 2258.07 2568.11 2255.8C2567.44 2253.4 2565.97 2251.8 2563.71 2251C2561.57 2250.07 2558.44 2249.53 2554.31 2249.4V2245.4C2557.77 2245.53 2562.24 2245.67 2567.71 2245.8C2573.31 2245.93 2579.37 2246 2585.91 2246C2591.51 2246 2597.04 2245.93 2602.51 2245.8C2607.97 2245.67 2612.51 2245.53 2616.11 2245.4ZM2773.06 2225.8L2776.06 2228.2C2767.13 2242.07 2760.66 2256.73 2756.66 2272.2C2752.66 2287.67 2750.66 2305.13 2750.66 2324.6C2750.66 2343.93 2752.66 2361.27 2756.66 2376.6C2760.66 2391.93 2767.13 2406.73 2776.06 2421L2773.06 2423.4C2757.2 2411.67 2744.86 2397.73 2736.06 2381.6C2727.4 2365.47 2723.06 2346.47 2723.06 2324.6C2723.06 2302.73 2727.4 2283.73 2736.06 2267.6C2744.86 2251.47 2757.2 2237.53 2773.06 2225.8ZM2882.81 2280.8C2894.55 2280.8 2903.75 2284.27 2910.41 2291.2C2917.08 2298.13 2920.41 2309.47 2920.41 2325.2H2854.61L2854.21 2321.4H2895.21C2895.35 2314.87 2894.95 2308.87 2894.01 2303.4C2893.08 2297.8 2891.61 2293.33 2889.61 2290C2887.61 2286.67 2884.95 2285 2881.61 2285C2876.95 2285 2872.95 2287.93 2869.61 2293.8C2866.41 2299.67 2864.48 2309.4 2863.81 2323L2864.41 2324.2C2864.28 2325.8 2864.15 2327.47 2864.01 2329.2C2864.01 2330.93 2864.01 2332.73 2864.01 2334.6C2864.01 2343.8 2865.28 2351.27 2867.81 2357C2870.48 2362.73 2873.81 2366.93 2877.81 2369.6C2881.81 2372.13 2885.88 2373.4 2890.01 2373.4C2892.81 2373.4 2895.68 2373 2898.61 2372.2C2901.68 2371.27 2904.75 2369.67 2907.81 2367.4C2910.88 2365 2913.75 2361.67 2916.41 2357.4L2920.01 2358.6C2918.41 2363.67 2915.88 2368.6 2912.41 2373.4C2908.95 2378.2 2904.55 2382.13 2899.21 2385.2C2893.88 2388.27 2887.48 2389.8 2880.01 2389.8C2870.95 2389.8 2862.95 2387.87 2856.01 2384C2849.08 2380.13 2843.61 2374.27 2839.61 2366.4C2835.75 2358.53 2833.81 2348.53 2833.81 2336.4C2833.81 2324 2835.88 2313.67 2840.01 2305.4C2844.28 2297.13 2850.08 2291 2857.41 2287C2864.88 2282.87 2873.35 2280.8 2882.81 2280.8ZM3307.23 2225.8C3323.1 2237.53 3335.37 2251.47 3344.03 2267.6C3352.83 2283.73 3357.23 2302.73 3357.23 2324.6C3357.23 2346.47 3352.83 2365.47 3344.03 2381.6C3335.37 2397.73 3323.1 2411.67 3307.23 2423.4L3304.23 2421C3313.3 2406.73 3319.77 2391.93 3323.63 2376.6C3327.63 2361.27 3329.63 2343.93 3329.63 2324.6C3329.63 2305.13 3327.63 2287.67 3323.63 2272.2C3319.63 2256.73 3313.17 2242.07 3304.23 2228.2L3307.23 2225.8ZM3635.22 2324.6V2341.2H3563.02V2324.6H3635.22ZM3701.95 2281.4V2367.6C3701.95 2373.47 3703.02 2377.47 3705.15 2379.6C3707.42 2381.73 3711.15 2382.8 3716.35 2382.8V2387C3713.69 2386.87 3709.75 2386.73 3704.55 2386.6C3699.49 2386.33 3694.22 2386.2 3688.75 2386.2C3681.95 2386.2 3675.35 2386.33 3668.95 2386.6C3662.69 2386.73 3657.82 2386.87 3654.35 2387V2382.8C3660.35 2382.8 3664.95 2381.73 3668.15 2379.6C3671.49 2377.33 3673.15 2372.93 3673.15 2366.4V2317.6C3673.15 2311.2 3672.62 2306.47 3671.55 2303.4C3670.49 2300.33 3668.49 2298.33 3665.55 2297.4C3662.62 2296.47 3658.62 2296 3653.55 2296V2291.6C3665.02 2291.33 3674.49 2290.47 3681.95 2289C3689.55 2287.53 3696.22 2285 3701.95 2281.4Z" fill="#D6D5A8"/>
<path d="M4460.2 2107.6C4465.2 2107.8 4471.9 2108 4480.3 2108.2C4488.9 2108.4 4497.4 2108.5 4505.8 2108.5C4515.4 2108.5 4524.7 2108.4 4533.7 2108.2C4542.7 2108 4549.1 2107.9 4552.9 2107.9C4571.5 2107.9 4586.9 2110 4599.1 2114.2C4611.5 2118.2 4620.7 2124.1 4626.7 2131.9C4632.9 2139.7 4636 2149.1 4636 2160.1C4636 2166.9 4634.6 2173.8 4631.8 2180.8C4629 2187.6 4624.2 2194 4617.4 2200C4610.8 2205.8 4601.7 2210.5 4590.1 2214.1C4578.5 2217.5 4563.9 2219.2 4546.3 2219.2H4517.5V2213.2H4543.3C4555.1 2213.2 4564 2211 4570 2206.6C4576.2 2202 4580.4 2196 4582.6 2188.6C4585 2181 4586.2 2172.6 4586.2 2163.4C4586.2 2147.6 4583.4 2135.4 4577.8 2126.8C4572.2 2118 4562.6 2113.6 4549 2113.6C4541.2 2113.6 4536.1 2115.3 4533.7 2118.7C4531.5 2122.1 4530.4 2129 4530.4 2139.4V2288.2C4530.4 2295.4 4530.9 2300.8 4531.9 2304.4C4533.1 2308 4535.3 2310.4 4538.5 2311.6C4541.7 2312.8 4546.5 2313.6 4552.9 2314V2320C4547.5 2319.6 4540.7 2319.4 4532.5 2319.4C4524.3 2319.2 4516 2319.1 4507.6 2319.1C4498 2319.1 4488.9 2319.2 4480.3 2319.4C4471.9 2319.4 4465.2 2319.6 4460.2 2320V2314C4466.6 2313.6 4471.4 2312.8 4474.6 2311.6C4477.8 2310.4 4479.9 2308 4480.9 2304.4C4482.1 2300.8 4482.7 2295.4 4482.7 2288.2V2139.4C4482.7 2132 4482.1 2126.6 4480.9 2123.2C4479.9 2119.6 4477.7 2117.2 4474.3 2116C4471.1 2114.6 4466.4 2113.8 4460.2 2113.6V2107.6ZM4516.9 2214.1C4525.5 2214.3 4532.9 2214.7 4539.1 2215.3C4545.5 2215.9 4551.1 2216.5 4555.9 2217.1C4560.7 2217.5 4565 2217.8 4568.8 2218C4587 2219.6 4600.4 2223.5 4609 2229.7C4617.8 2235.9 4623.5 2245.2 4626.1 2257.6L4633 2288.5C4634.8 2296.5 4636.7 2302.1 4638.7 2305.3C4640.7 2308.5 4643.6 2310.1 4647.4 2310.1C4650 2309.9 4652.1 2309.3 4653.7 2308.3C4655.5 2307.1 4657.4 2305.4 4659.4 2303.2L4663.6 2306.8C4658.2 2313 4652.4 2317.4 4646.2 2320C4640 2322.8 4632.5 2324.2 4623.7 2324.2C4612.9 2324.2 4604 2321.9 4597 2317.3C4590 2312.7 4585.4 2304.2 4583.2 2291.8L4577.8 2261.8C4576.4 2253.4 4574.7 2246.1 4572.7 2239.9C4570.7 2233.5 4567.9 2228.5 4564.3 2224.9C4560.9 2221.1 4556.1 2219.2 4549.9 2219.2H4517.5L4516.9 2214.1Z" fill="#D6D5A8"/>
<path d="M4715.2 112.6C4720.2 112.8 4726.9 113 4735.3 113.2C4743.9 113.4 4752.4 113.5 4760.8 113.5C4770.4 113.5 4779.7 113.4 4788.7 113.2C4797.7 113 4804.1 112.9 4807.9 112.9C4826.5 112.9 4841.9 115 4854.1 119.2C4866.5 123.2 4875.7 129.1 4881.7 136.9C4887.9 144.7 4891 154.1 4891 165.1C4891 171.9 4889.6 178.8 4886.8 185.8C4884 192.6 4879.2 199 4872.4 205C4865.8 210.8 4856.7 215.5 4845.1 219.1C4833.5 222.5 4818.9 224.2 4801.3 224.2H4772.5V218.2H4798.3C4810.1 218.2 4819 216 4825 211.6C4831.2 207 4835.4 201 4837.6 193.6C4840 186 4841.2 177.6 4841.2 168.4C4841.2 152.6 4838.4 140.4 4832.8 131.8C4827.2 123 4817.6 118.6 4804 118.6C4796.2 118.6 4791.1 120.3 4788.7 123.7C4786.5 127.1 4785.4 134 4785.4 144.4V293.2C4785.4 300.4 4785.9 305.8 4786.9 309.4C4788.1 313 4790.3 315.4 4793.5 316.6C4796.7 317.8 4801.5 318.6 4807.9 319V325C4802.5 324.6 4795.7 324.4 4787.5 324.4C4779.3 324.2 4771 324.1 4762.6 324.1C4753 324.1 4743.9 324.2 4735.3 324.4C4726.9 324.4 4720.2 324.6 4715.2 325V319C4721.6 318.6 4726.4 317.8 4729.6 316.6C4732.8 315.4 4734.9 313 4735.9 309.4C4737.1 305.8 4737.7 300.4 4737.7 293.2V144.4C4737.7 137 4737.1 131.6 4735.9 128.2C4734.9 124.6 4732.7 122.2 4729.3 121C4726.1 119.6 4721.4 118.8 4715.2 118.6V112.6ZM4771.9 219.1C4780.5 219.3 4787.9 219.7 4794.1 220.3C4800.5 220.9 4806.1 221.5 4810.9 222.1C4815.7 222.5 4820 222.8 4823.8 223C4842 224.6 4855.4 228.5 4864 234.7C4872.8 240.9 4878.5 250.2 4881.1 262.6L4888 293.5C4889.8 301.5 4891.7 307.1 4893.7 310.3C4895.7 313.5 4898.6 315.1 4902.4 315.1C4905 314.9 4907.1 314.3 4908.7 313.3C4910.5 312.1 4912.4 310.4 4914.4 308.2L4918.6 311.8C4913.2 318 4907.4 322.4 4901.2 325C4895 327.8 4887.5 329.2 4878.7 329.2C4867.9 329.2 4859 326.9 4852 322.3C4845 317.7 4840.4 309.2 4838.2 296.8L4832.8 266.8C4831.4 258.4 4829.7 251.1 4827.7 244.9C4825.7 238.5 4822.9 233.5 4819.3 229.9C4815.9 226.1 4811.1 224.2 4804.9 224.2H4772.5L4771.9 219.1Z" fill="#D6D5A8"/>
<path d="M6578.4 931L6651.3 1118.8C6654.1 1126 6657.2 1131 6660.6 1133.8C6664.2 1136.4 6667.4 1137.8 6670.2 1138V1144C6664.2 1143.6 6657.1 1143.4 6648.9 1143.4C6640.9 1143.2 6632.8 1143.1 6624.6 1143.1C6615.4 1143.1 6606.7 1143.2 6598.5 1143.4C6590.3 1143.4 6583.8 1143.6 6579 1144V1138C6589.2 1137.6 6595.6 1135.9 6598.2 1132.9C6601 1129.7 6600.4 1123 6596.4 1112.8L6545.4 973.3L6550.8 965.5L6505.2 1084.3C6500.8 1095.3 6498.1 1104.3 6497.1 1111.3C6496.3 1118.3 6496.8 1123.7 6498.6 1127.5C6500.6 1131.3 6503.7 1134 6507.9 1135.6C6512.3 1137 6517.5 1137.8 6523.5 1138V1144C6516.9 1143.6 6510.6 1143.4 6504.6 1143.4C6498.6 1143.2 6492.5 1143.1 6486.3 1143.1C6481.9 1143.1 6477.7 1143.2 6473.7 1143.4C6469.9 1143.4 6466.5 1143.6 6463.5 1144V1138C6467.7 1137.2 6472 1134.5 6476.4 1129.9C6480.8 1125.3 6485.1 1117.5 6489.3 1106.5L6557.7 931C6560.9 931.2 6564.3 931.3 6567.9 931.3C6571.7 931.3 6575.2 931.2 6578.4 931ZM6599.4 1057.6V1063.6H6510L6513 1057.6H6599.4Z" fill="#D6D5A8"/>
<path d="M6533.2 2911.6C6538.4 2911.8 6545.2 2912 6553.6 2912.2C6562 2912.4 6570.4 2912.5 6578.8 2912.5C6588.4 2912.5 6597.7 2912.4 6606.7 2912.2C6615.7 2912 6622.1 2911.9 6625.9 2911.9C6650.7 2911.9 6669.2 2916.3 6681.4 2925.1C6693.8 2933.9 6700 2945.2 6700 2959C6700 2966 6697.9 2973.1 6693.7 2980.3C6689.5 2987.5 6683 2993.9 6674.2 2999.5C6665.4 3005.1 6654 3009.2 6640 3011.8V3012.4C6658.8 3013.8 6673.7 3017.2 6684.7 3022.6C6695.7 3028 6703.6 3034.5 6708.4 3042.1C6713.2 3049.7 6715.6 3057.6 6715.6 3065.8C6715.6 3078.4 6712.3 3089 6705.7 3097.6C6699.1 3106.2 6689.6 3112.8 6677.2 3117.4C6664.8 3121.8 6650 3124 6632.8 3124C6628 3124 6621.1 3123.9 6612.1 3123.7C6603.1 3123.3 6592.2 3123.1 6579.4 3123.1C6570.6 3123.1 6562 3123.2 6553.6 3123.4C6545.2 3123.4 6538.4 3123.6 6533.2 3124V3118C6539.6 3117.6 6544.4 3116.8 6547.6 3115.6C6550.8 3114.4 6552.9 3112 6553.9 3108.4C6555.1 3104.8 6555.7 3099.4 6555.7 3092.2V2943.4C6555.7 2936 6555.1 2930.6 6553.9 2927.2C6552.9 2923.6 6550.7 2921.2 6547.3 2920C6544.1 2918.6 6539.4 2917.8 6533.2 2917.6V2911.6ZM6622 2917.6C6614.2 2917.6 6609.1 2919.3 6606.7 2922.7C6604.5 2926.1 6603.4 2933 6603.4 2943.4V3092.2C6603.4 3099.2 6603.9 3104.5 6604.9 3108.1C6606.1 3111.7 6608.1 3114.1 6610.9 3115.3C6613.9 3116.5 6618.3 3117.1 6624.1 3117.1C6638.5 3117.1 6649 3112.6 6655.6 3103.6C6662.4 3094.4 6665.8 3081.4 6665.8 3064.6C6665.8 3049.2 6661.9 3037.3 6654.1 3028.9C6646.5 3020.5 6633.8 3016.3 6616 3016.3H6590.5C6590.5 3016.3 6590.5 3015.5 6590.5 3013.9C6590.5 3012.1 6590.5 3011.2 6590.5 3011.2H6616.3C6625.7 3011.2 6632.9 3009 6637.9 3004.6C6642.9 3000 6646.4 2994 6648.4 2986.6C6650.4 2979 6651.4 2970.9 6651.4 2962.3C6651.4 2947.5 6649.1 2936.4 6644.5 2929C6639.9 2921.4 6632.4 2917.6 6622 2917.6Z" fill="#D6D5A8"/>
<path d="M3568.9 934.6V940.6C3562.5 940.8 3557.6 941.6 3554.2 943C3551 944.2 3548.9 946.6 3547.9 950.2C3546.9 953.6 3546.4 959 3546.4 966.4V1115.2C3546.4 1122.4 3546.9 1127.8 3547.9 1131.4C3549.1 1135 3551.3 1137.4 3554.5 1138.6C3557.7 1139.8 3562.5 1140.6 3568.9 1141V1147C3563.5 1146.6 3556.7 1146.4 3548.5 1146.4C3540.3 1146.2 3532 1146.1 3523.6 1146.1C3513.8 1146.1 3504.7 1146.2 3496.3 1146.4C3488.1 1146.4 3481.4 1146.6 3476.2 1147V1141C3482.6 1140.6 3487.4 1139.8 3490.6 1138.6C3493.8 1137.4 3495.9 1135 3496.9 1131.4C3498.1 1127.8 3498.7 1122.4 3498.7 1115.2V966.4C3498.7 959 3498.1 953.6 3496.9 950.2C3495.9 946.6 3493.7 944.2 3490.3 943C3487.1 941.6 3482.4 940.8 3476.2 940.6V934.6C3481.4 934.8 3488.1 935 3496.3 935.2C3504.7 935.4 3513.8 935.5 3523.6 935.5C3532 935.5 3540.3 935.4 3548.5 935.2C3556.7 935 3563.5 934.8 3568.9 934.6Z" fill="#D6D5A8"/>
<path d="M5037.9 1402.6V1408.6C5031.5 1408.8 5026.6 1409.6 5023.2 1411C5020 1412.2 5017.9 1414.6 5016.9 1418.2C5015.9 1421.6 5015.4 1427 5015.4 1434.4V1583.2C5015.4 1590.4 5015.9 1595.8 5016.9 1599.4C5018.1 1603 5020.3 1605.4 5023.5 1606.6C5026.7 1607.8 5031.5 1608.6 5037.9 1609V1615C5032.5 1614.6 5025.7 1614.4 5017.5 1614.4C5009.3 1614.2 5001 1614.1 4992.6 1614.1C4982.8 1614.1 4973.7 1614.2 4965.3 1614.4C4957.1 1614.4 4950.4 1614.6 4945.2 1615V1609C4951.6 1608.6 4956.4 1607.8 4959.6 1606.6C4962.8 1605.4 4964.9 1603 4965.9 1599.4C4967.1 1595.8 4967.7 1590.4 4967.7 1583.2V1434.4C4967.7 1427 4967.1 1421.6 4965.9 1418.2C4964.9 1414.6 4962.7 1412.2 4959.3 1411C4956.1 1409.6 4951.4 1408.8 4945.2 1408.6V1402.6C4950.4 1402.8 4957.1 1403 4965.3 1403.2C4973.7 1403.4 4982.8 1403.5 4992.6 1403.5C5001 1403.5 5009.3 1403.4 5017.5 1403.2C5025.7 1403 5032.5 1402.8 5037.9 1402.6Z" fill="#D6D5A8"/>
<path d="M1046.2 1488.8V1580.3C1046.2 1585 1047.4 1588.1 1049.8 1589.6C1052.2 1591.2 1055.5 1592 1059.7 1592V1595.15C1057.1 1595.05 1053.5 1594.9 1048.9 1594.7C1044.4 1594.6 1039.6 1594.55 1034.5 1594.55C1030.8 1594.55 1027.15 1594.6 1023.55 1594.7C1020.05 1594.9 1017.4 1595.05 1015.6 1595.15V1592C1018.9 1592 1021.2 1591.3 1022.5 1589.9C1023.9 1588.5 1024.6 1585.8 1024.6 1581.8V1506.8C1024.6 1502.3 1023.9 1499 1022.5 1496.9C1021.1 1494.7 1018.6 1493.6 1015 1493.6V1490.45C1018.2 1490.75 1021.3 1490.9 1024.3 1490.9C1028.4 1490.9 1032.3 1490.75 1036 1490.45C1039.7 1490.05 1043.1 1489.5 1046.2 1488.8ZM1069.45 1488.35C1074.55 1488.35 1079.1 1489.75 1083.1 1492.55C1087.1 1495.25 1090.3 1499.4 1092.7 1505C1095.1 1510.5 1096.3 1517.4 1096.3 1525.7C1096.3 1533 1095.45 1539.4 1093.75 1544.9C1092.15 1550.4 1089.8 1555.05 1086.7 1558.85C1083.7 1562.55 1080.05 1565.35 1075.75 1567.25C1071.55 1569.15 1066.8 1570.1 1061.5 1570.1C1057.6 1570.1 1054.05 1569.4 1050.85 1568C1047.65 1566.7 1045.2 1564.8 1043.5 1562.3L1045 1560.35C1046 1562.15 1047.4 1563.55 1049.2 1564.55C1051.1 1565.55 1053.25 1566.05 1055.65 1566.05C1060.15 1566.05 1063.7 1564.55 1066.3 1561.55C1068.9 1558.45 1070.75 1554.15 1071.85 1548.65C1073.05 1543.05 1073.65 1536.4 1073.65 1528.7C1073.65 1520.1 1073.1 1513.35 1072 1508.45C1070.9 1503.55 1069.4 1500.05 1067.5 1497.95C1065.6 1495.85 1063.3 1494.8 1060.6 1494.8C1057 1494.8 1053.7 1496.2 1050.7 1499C1047.8 1501.8 1046.15 1505.8 1045.75 1511L1045 1505.75C1046.8 1500.05 1049.85 1495.75 1054.15 1492.85C1058.55 1489.85 1063.65 1488.35 1069.45 1488.35ZM1135.99 1450.7V1502.3C1138.49 1497.1 1141.84 1493.5 1146.04 1491.5C1150.34 1489.4 1155.14 1488.35 1160.44 1488.35C1164.74 1488.35 1168.19 1488.9 1170.79 1490C1173.39 1491 1175.44 1492.4 1176.94 1494.2C1178.64 1496.1 1179.84 1498.55 1180.54 1501.55C1181.34 1504.55 1181.74 1508.6 1181.74 1513.7V1554.05C1181.74 1558.25 1182.44 1561.1 1183.84 1562.6C1185.34 1564.1 1187.84 1564.85 1191.34 1564.85V1568C1189.44 1567.9 1186.54 1567.8 1182.64 1567.7C1178.84 1567.5 1175.14 1567.4 1171.54 1567.4C1167.64 1567.4 1163.84 1567.5 1160.14 1567.7C1156.54 1567.8 1153.84 1567.9 1152.04 1568V1564.85C1155.04 1564.85 1157.14 1564.1 1158.34 1562.6C1159.54 1561.1 1160.14 1558.25 1160.14 1554.05V1507.4C1160.14 1504.9 1159.89 1502.75 1159.39 1500.95C1158.89 1499.05 1157.94 1497.6 1156.54 1496.6C1155.24 1495.5 1153.34 1494.95 1150.84 1494.95C1148.14 1494.95 1145.64 1495.7 1143.34 1497.2C1141.14 1498.6 1139.34 1500.6 1137.94 1503.2C1136.64 1505.8 1135.99 1508.8 1135.99 1512.2V1554.05C1135.99 1558.25 1136.59 1561.1 1137.79 1562.6C1138.99 1564.1 1141.09 1564.85 1144.09 1564.85V1568C1142.29 1567.9 1139.64 1567.8 1136.14 1567.7C1132.64 1567.5 1129.09 1567.4 1125.49 1567.4C1121.59 1567.4 1117.64 1567.5 1113.64 1567.7C1109.74 1567.8 1106.79 1567.9 1104.79 1568V1564.85C1108.29 1564.85 1110.74 1564.1 1112.14 1562.6C1113.64 1561.1 1114.39 1558.25 1114.39 1554.05V1468.7C1114.39 1464.2 1113.69 1460.9 1112.29 1458.8C1110.99 1456.6 1108.49 1455.5 1104.79 1455.5V1452.35C1107.99 1452.65 1111.09 1452.8 1114.09 1452.8C1118.19 1452.8 1122.09 1452.65 1125.79 1452.35C1129.49 1451.95 1132.89 1451.4 1135.99 1450.7ZM1235.5 1488.35C1242.8 1488.35 1249.2 1489.7 1254.7 1492.4C1260.2 1495.1 1264.5 1499.45 1267.6 1505.45C1270.7 1511.45 1272.25 1519.4 1272.25 1529.3C1272.25 1539.2 1270.7 1547.15 1267.6 1553.15C1264.5 1559.05 1260.2 1563.35 1254.7 1566.05C1249.2 1568.75 1242.8 1570.1 1235.5 1570.1C1228.4 1570.1 1222.05 1568.75 1216.45 1566.05C1210.95 1563.35 1206.6 1559.05 1203.4 1553.15C1200.3 1547.15 1198.75 1539.2 1198.75 1529.3C1198.75 1519.4 1200.3 1511.45 1203.4 1505.45C1206.6 1499.45 1210.95 1495.1 1216.45 1492.4C1222.05 1489.7 1228.4 1488.35 1235.5 1488.35ZM1235.5 1491.35C1231.5 1491.35 1228.15 1494.35 1225.45 1500.35C1222.75 1506.25 1221.4 1515.9 1221.4 1529.3C1221.4 1542.7 1222.75 1552.35 1225.45 1558.25C1228.15 1564.15 1231.5 1567.1 1235.5 1567.1C1239.6 1567.1 1242.95 1564.15 1245.55 1558.25C1248.25 1552.35 1249.6 1542.7 1249.6 1529.3C1249.6 1515.9 1248.25 1506.25 1245.55 1500.35C1242.95 1494.35 1239.6 1491.35 1235.5 1491.35ZM1312.07 1465.85V1490.45H1329.77V1493.45H1312.07V1554.05C1312.07 1557.05 1312.62 1559.2 1313.72 1560.5C1314.82 1561.7 1316.47 1562.3 1318.67 1562.3C1320.47 1562.3 1322.27 1561.65 1324.07 1560.35C1325.87 1558.95 1327.47 1556.6 1328.87 1553.3L1331.42 1554.65C1329.82 1559.15 1327.37 1562.85 1324.07 1565.75C1320.87 1568.65 1316.47 1570.1 1310.87 1570.1C1307.57 1570.1 1304.67 1569.65 1302.17 1568.75C1299.67 1567.95 1297.57 1566.7 1295.87 1565C1293.67 1562.8 1292.22 1560.1 1291.52 1556.9C1290.82 1553.6 1290.47 1549.35 1290.47 1544.15V1493.45H1277.87V1490.45H1290.47V1470.65C1294.67 1470.65 1298.52 1470.3 1302.02 1469.6C1305.62 1468.8 1308.97 1467.55 1312.07 1465.85ZM1372.46 1488.35C1379.76 1488.35 1386.16 1489.7 1391.66 1492.4C1397.16 1495.1 1401.46 1499.45 1404.56 1505.45C1407.66 1511.45 1409.21 1519.4 1409.21 1529.3C1409.21 1539.2 1407.66 1547.15 1404.56 1553.15C1401.46 1559.05 1397.16 1563.35 1391.66 1566.05C1386.16 1568.75 1379.76 1570.1 1372.46 1570.1C1365.36 1570.1 1359.01 1568.75 1353.41 1566.05C1347.91 1563.35 1343.56 1559.05 1340.36 1553.15C1337.26 1547.15 1335.71 1539.2 1335.71 1529.3C1335.71 1519.4 1337.26 1511.45 1340.36 1505.45C1343.56 1499.45 1347.91 1495.1 1353.41 1492.4C1359.01 1489.7 1365.36 1488.35 1372.46 1488.35ZM1372.46 1491.35C1368.46 1491.35 1365.11 1494.35 1362.41 1500.35C1359.71 1506.25 1358.36 1515.9 1358.36 1529.3C1358.36 1542.7 1359.71 1552.35 1362.41 1558.25C1365.11 1564.15 1368.46 1567.1 1372.46 1567.1C1376.56 1567.1 1379.91 1564.15 1382.51 1558.25C1385.21 1552.35 1386.56 1542.7 1386.56 1529.3C1386.56 1515.9 1385.21 1506.25 1382.51 1500.35C1379.91 1494.35 1376.56 1491.35 1372.46 1491.35Z" fill="#D6D5A8"/>
<path d="M2083.4 1044.55V1145.5C2083.4 1150 2084.1 1153.35 2085.5 1155.55C2086.9 1157.65 2089.4 1158.7 2093 1158.7V1161.85C2089.9 1161.55 2086.8 1161.4 2083.7 1161.4C2079.5 1161.4 2075.55 1161.55 2071.85 1161.85C2068.25 1162.15 2064.9 1162.7 2061.8 1163.5V1062.55C2061.8 1058.05 2061.1 1054.75 2059.7 1052.65C2058.4 1050.45 2055.9 1049.35 2052.2 1049.35V1046.2C2055.4 1046.5 2058.5 1046.65 2061.5 1046.65C2065.6 1046.65 2069.5 1046.5 2073.2 1046.2C2076.9 1045.8 2080.3 1045.25 2083.4 1044.55ZM2045.15 1082.35C2049.55 1082.35 2053.4 1083.1 2056.7 1084.6C2060.1 1086 2062.75 1088.4 2064.65 1091.8L2062.85 1093.45C2061.55 1091.05 2059.8 1089.35 2057.6 1088.35C2055.5 1087.25 2053.25 1086.7 2050.85 1086.7C2045.75 1086.7 2041.7 1089.7 2038.7 1095.7C2035.7 1101.6 2034.25 1110.75 2034.35 1123.15C2034.35 1131.65 2034.9 1138.45 2036 1143.55C2037.2 1148.55 2038.85 1152.15 2040.95 1154.35C2043.15 1156.55 2045.65 1157.65 2048.45 1157.65C2051.85 1157.65 2054.9 1156.3 2057.6 1153.6C2060.3 1150.9 2061.75 1147.25 2061.95 1142.65L2062.7 1147.9C2061.2 1153.2 2058.75 1157.25 2055.35 1160.05C2052.05 1162.75 2047.7 1164.1 2042.3 1164.1C2036.4 1164.1 2031.1 1162.65 2026.4 1159.75C2021.8 1156.85 2018.2 1152.4 2015.6 1146.4C2013 1140.3 2011.7 1132.45 2011.7 1122.85C2011.7 1113.75 2013.15 1106.25 2016.05 1100.35C2018.95 1094.35 2022.9 1089.85 2027.9 1086.85C2033 1083.85 2038.75 1082.35 2045.15 1082.35ZM2118.75 1045.75C2122.95 1045.75 2126.25 1046.8 2128.65 1048.9C2131.15 1050.9 2132.4 1053.7 2132.4 1057.3C2132.4 1060.9 2131.15 1063.75 2128.65 1065.85C2126.25 1067.85 2122.95 1068.85 2118.75 1068.85C2114.55 1068.85 2111.2 1067.85 2108.7 1065.85C2106.3 1063.75 2105.1 1060.9 2105.1 1057.3C2105.1 1053.7 2106.3 1050.9 2108.7 1048.9C2111.2 1046.8 2114.55 1045.75 2118.75 1045.75ZM2130.45 1082.8V1148.05C2130.45 1152.25 2131.15 1155.1 2132.55 1156.6C2134.05 1158.1 2136.55 1158.85 2140.05 1158.85V1162C2138.25 1161.9 2135.45 1161.8 2131.65 1161.7C2127.85 1161.5 2124 1161.4 2120.1 1161.4C2116.2 1161.4 2112.25 1161.5 2108.25 1161.7C2104.25 1161.8 2101.25 1161.9 2099.25 1162V1158.85C2102.75 1158.85 2105.2 1158.1 2106.6 1156.6C2108.1 1155.1 2108.85 1152.25 2108.85 1148.05V1100.8C2108.85 1096.3 2108.15 1093 2106.75 1090.9C2105.45 1088.7 2102.95 1087.6 2099.25 1087.6V1084.45C2102.45 1084.75 2105.55 1084.9 2108.55 1084.9C2112.75 1084.9 2116.65 1084.75 2120.25 1084.45C2123.95 1084.05 2127.35 1083.5 2130.45 1082.8ZM2185.26 1082.35C2192.56 1082.35 2198.96 1083.7 2204.46 1086.4C2209.96 1089.1 2214.26 1093.45 2217.36 1099.45C2220.46 1105.45 2222.01 1113.4 2222.01 1123.3C2222.01 1133.2 2220.46 1141.15 2217.36 1147.15C2214.26 1153.05 2209.96 1157.35 2204.46 1160.05C2198.96 1162.75 2192.56 1164.1 2185.26 1164.1C2178.16 1164.1 2171.81 1162.75 2166.21 1160.05C2160.71 1157.35 2156.36 1153.05 2153.16 1147.15C2150.06 1141.15 2148.51 1133.2 2148.51 1123.3C2148.51 1113.4 2150.06 1105.45 2153.16 1099.45C2156.36 1093.45 2160.71 1089.1 2166.21 1086.4C2171.81 1083.7 2178.16 1082.35 2185.26 1082.35ZM2185.26 1085.35C2181.26 1085.35 2177.91 1088.35 2175.21 1094.35C2172.51 1100.25 2171.16 1109.9 2171.16 1123.3C2171.16 1136.7 2172.51 1146.35 2175.21 1152.25C2177.91 1158.15 2181.26 1161.1 2185.26 1161.1C2189.36 1161.1 2192.71 1158.15 2195.31 1152.25C2198.01 1146.35 2199.36 1136.7 2199.36 1123.3C2199.36 1109.9 2198.01 1100.25 2195.31 1094.35C2192.71 1088.35 2189.36 1085.35 2185.26 1085.35ZM2305.18 1044.55V1145.5C2305.18 1150 2305.88 1153.35 2307.28 1155.55C2308.68 1157.65 2311.18 1158.7 2314.78 1158.7V1161.85C2311.68 1161.55 2308.58 1161.4 2305.48 1161.4C2301.28 1161.4 2297.33 1161.55 2293.63 1161.85C2290.03 1162.15 2286.68 1162.7 2283.58 1163.5V1062.55C2283.58 1058.05 2282.88 1054.75 2281.48 1052.65C2280.18 1050.45 2277.68 1049.35 2273.98 1049.35V1046.2C2277.18 1046.5 2280.28 1046.65 2283.28 1046.65C2287.38 1046.65 2291.28 1046.5 2294.98 1046.2C2298.68 1045.8 2302.08 1045.25 2305.18 1044.55ZM2266.93 1082.35C2271.33 1082.35 2275.18 1083.1 2278.48 1084.6C2281.88 1086 2284.53 1088.4 2286.43 1091.8L2284.63 1093.45C2283.33 1091.05 2281.58 1089.35 2279.38 1088.35C2277.28 1087.25 2275.03 1086.7 2272.63 1086.7C2267.53 1086.7 2263.48 1089.7 2260.48 1095.7C2257.48 1101.6 2256.03 1110.75 2256.13 1123.15C2256.13 1131.65 2256.68 1138.45 2257.78 1143.55C2258.98 1148.55 2260.63 1152.15 2262.73 1154.35C2264.93 1156.55 2267.43 1157.65 2270.23 1157.65C2273.63 1157.65 2276.68 1156.3 2279.38 1153.6C2282.08 1150.9 2283.53 1147.25 2283.73 1142.65L2284.48 1147.9C2282.98 1153.2 2280.53 1157.25 2277.13 1160.05C2273.83 1162.75 2269.48 1164.1 2264.08 1164.1C2258.18 1164.1 2252.88 1162.65 2248.18 1159.75C2243.58 1156.85 2239.98 1152.4 2237.38 1146.4C2234.78 1140.3 2233.48 1132.45 2233.48 1122.85C2233.48 1113.75 2234.93 1106.25 2237.83 1100.35C2240.73 1094.35 2244.68 1089.85 2249.68 1086.85C2254.78 1083.85 2260.53 1082.35 2266.93 1082.35ZM2359.73 1082.35C2368.53 1082.35 2375.43 1084.95 2380.43 1090.15C2385.43 1095.35 2387.93 1103.85 2387.93 1115.65H2338.58L2338.28 1112.8H2369.03C2369.13 1107.9 2368.83 1103.4 2368.13 1099.3C2367.43 1095.1 2366.33 1091.75 2364.83 1089.25C2363.33 1086.75 2361.33 1085.5 2358.83 1085.5C2355.33 1085.5 2352.33 1087.7 2349.83 1092.1C2347.43 1096.5 2345.98 1103.8 2345.48 1114L2345.93 1114.9C2345.83 1116.1 2345.73 1117.35 2345.63 1118.65C2345.63 1119.95 2345.63 1121.3 2345.63 1122.7C2345.63 1129.6 2346.58 1135.2 2348.48 1139.5C2350.48 1143.8 2352.98 1146.95 2355.98 1148.95C2358.98 1150.85 2362.03 1151.8 2365.13 1151.8C2367.23 1151.8 2369.38 1151.5 2371.58 1150.9C2373.88 1150.2 2376.18 1149 2378.48 1147.3C2380.78 1145.5 2382.93 1143 2384.93 1139.8L2387.63 1140.7C2386.43 1144.5 2384.53 1148.2 2381.93 1151.8C2379.33 1155.4 2376.03 1158.35 2372.03 1160.65C2368.03 1162.95 2363.23 1164.1 2357.63 1164.1C2350.83 1164.1 2344.83 1162.65 2339.63 1159.75C2334.43 1156.85 2330.33 1152.45 2327.33 1146.55C2324.43 1140.65 2322.98 1133.15 2322.98 1124.05C2322.98 1114.75 2324.53 1107 2327.63 1100.8C2330.83 1094.6 2335.18 1090 2340.68 1087C2346.28 1083.9 2352.63 1082.35 2359.73 1082.35Z" fill="#D6D5A8"/>
<path d="M3010.4 1951.35C3015.1 1951.35 3019.15 1952 3022.55 1953.3C3025.95 1954.5 3028.9 1956.8 3031.4 1960.2L3029.15 1960.95C3027.65 1958.65 3025.75 1957 3023.45 1956C3021.15 1955 3018.7 1954.5 3016.1 1954.5C3010.9 1954.5 3006.95 1957.6 3004.25 1963.8C3001.55 1970 3000.2 1979.45 3000.2 1992.15C3000.2 2000.65 3000.8 2007.45 3002 2012.55C3003.2 2017.55 3004.85 2021.15 3006.95 2023.35C3009.15 2025.55 3011.7 2026.65 3014.6 2026.65C3017.9 2026.65 3020.9 2025.2 3023.6 2022.3C3026.4 2019.4 3027.9 2015.45 3028.1 2010.45L3028.85 2015.7C3027.35 2021.4 3024.85 2025.75 3021.35 2028.75C3017.85 2031.65 3013.5 2033.1 3008.3 2033.1C3002.6 2033.1 2997.4 2031.65 2992.7 2028.75C2988.1 2025.85 2984.4 2021.4 2981.6 2015.4C2978.9 2009.3 2977.55 2001.45 2977.55 1991.85C2977.55 1982.75 2978.95 1975.25 2981.75 1969.35C2984.55 1963.35 2988.4 1958.85 2993.3 1955.85C2998.3 1952.85 3004 1951.35 3010.4 1951.35ZM3048.05 1951.05L3050.3 1952.25C3049.9 1953.55 3049.6 1954.95 3049.4 1956.45C3049.3 1957.85 3049.25 1959.3 3049.25 1960.8V2044.8C3049.25 2048.8 3049.9 2051.5 3051.2 2052.9C3052.6 2054.3 3054.95 2055 3058.25 2055V2058.15C3056.45 2058.05 3053.8 2057.9 3050.3 2057.7C3046.8 2057.6 3043.15 2057.55 3039.35 2057.55C3034.35 2057.55 3029.55 2057.6 3024.95 2057.7C3020.35 2057.9 3016.75 2058.05 3014.15 2058.15V2055C3018.45 2055 3021.75 2054.2 3024.05 2052.6C3026.45 2051.1 3027.65 2048 3027.65 2043.3V1957.35C3030.25 1957.55 3032.85 1957.4 3035.45 1956.9C3038.05 1956.4 3040.45 1955.65 3042.65 1954.65C3044.95 1953.55 3046.75 1952.35 3048.05 1951.05ZM3154.27 1924.8V1927.8C3152.07 1928.6 3149.72 1930.35 3147.22 1933.05C3144.82 1935.75 3142.57 1939.95 3140.47 1945.65L3108.82 2031.3C3108.02 2031.2 3107.17 2031.15 3106.27 2031.15C3105.37 2031.15 3104.47 2031.15 3103.57 2031.15C3102.77 2031.15 3101.92 2031.15 3101.02 2031.15C3100.12 2031.15 3099.27 2031.2 3098.47 2031.3L3060.22 1937.4C3058.82 1933.8 3057.27 1931.35 3055.57 1930.05C3053.87 1928.65 3052.27 1927.9 3050.77 1927.8V1924.8C3053.77 1924.9 3057.27 1925 3061.27 1925.1C3065.37 1925.2 3069.47 1925.25 3073.57 1925.25C3078.17 1925.25 3082.47 1925.2 3086.47 1925.1C3090.57 1925 3093.87 1924.9 3096.37 1924.8V1927.8C3093.17 1927.9 3090.67 1928.3 3088.87 1929C3087.07 1929.6 3086.07 1930.8 3085.87 1932.6C3085.67 1934.3 3086.27 1936.9 3087.67 1940.4L3114.97 2009.85L3111.82 2013.6L3132.52 1957.8C3135.22 1950.3 3136.62 1944.4 3136.72 1940.1C3136.82 1935.8 3135.77 1932.7 3133.57 1930.8C3131.37 1928.9 3128.22 1927.9 3124.12 1927.8V1924.8C3127.52 1924.9 3130.72 1925 3133.72 1925.1C3136.72 1925.2 3139.77 1925.25 3142.87 1925.25C3145.07 1925.25 3147.12 1925.2 3149.02 1925.1C3151.02 1925 3152.77 1924.9 3154.27 1924.8Z" fill="#D6D5A8"/>
<path d="M3028.4 2215.35C3032.6 2215.35 3036 2215.9 3038.6 2217C3041.3 2218 3043.4 2219.4 3044.9 2221.2C3046.5 2223.1 3047.65 2225.55 3048.35 2228.55C3049.15 2231.55 3049.55 2235.6 3049.55 2240.7V2281.05C3049.55 2285.25 3050.25 2288.1 3051.65 2289.6C3053.15 2291.1 3055.65 2291.85 3059.15 2291.85V2295C3057.25 2294.9 3054.4 2294.8 3050.6 2294.7C3046.8 2294.5 3043.05 2294.4 3039.35 2294.4C3035.55 2294.4 3031.8 2294.5 3028.1 2294.7C3024.5 2294.8 3021.75 2294.9 3019.85 2295V2291.85C3022.85 2291.85 3024.95 2291.1 3026.15 2289.6C3027.35 2288.1 3027.95 2285.25 3027.95 2281.05V2234.4C3027.95 2231.9 3027.7 2229.75 3027.2 2227.95C3026.7 2226.05 3025.8 2224.6 3024.5 2223.6C3023.2 2222.5 3021.25 2221.95 3018.65 2221.95C3015.95 2221.95 3013.45 2222.7 3011.15 2224.2C3008.95 2225.7 3007.15 2227.8 3005.75 2230.5C3004.45 2233.1 3003.8 2236.05 3003.8 2239.35V2281.05C3003.8 2285.25 3004.4 2288.1 3005.6 2289.6C3006.9 2291.1 3009 2291.85 3011.9 2291.85V2295C3010.1 2294.9 3007.45 2294.8 3003.95 2294.7C3000.55 2294.5 2997 2294.4 2993.3 2294.4C2989.5 2294.4 2985.6 2294.5 2981.6 2294.7C2977.6 2294.8 2974.6 2294.9 2972.6 2295V2291.85C2976.1 2291.85 2978.55 2291.1 2979.95 2289.6C2981.45 2288.1 2982.2 2285.25 2982.2 2281.05V2233.8C2982.2 2229.3 2981.5 2226 2980.1 2223.9C2978.8 2221.7 2976.3 2220.6 2972.6 2220.6V2217.45C2975.8 2217.75 2978.9 2217.9 2981.9 2217.9C2986.1 2217.9 2990 2217.75 2993.6 2217.45C2997.3 2217.05 3000.7 2216.5 3003.8 2215.8V2229.3C3006.3 2224.2 3009.7 2220.6 3014 2218.5C3018.3 2216.4 3023.1 2215.35 3028.4 2215.35ZM3095.19 2177.55V2281.05C3095.19 2285.25 3095.84 2288.1 3097.14 2289.6C3098.54 2291.1 3100.89 2291.85 3104.19 2291.85V2295C3102.29 2294.9 3099.49 2294.8 3095.79 2294.7C3092.19 2294.5 3088.49 2294.4 3084.69 2294.4C3080.79 2294.4 3076.84 2294.5 3072.84 2294.7C3068.94 2294.8 3065.99 2294.9 3063.99 2295V2291.85C3067.49 2291.85 3069.94 2291.1 3071.34 2289.6C3072.84 2288.1 3073.59 2285.25 3073.59 2281.05V2195.55C3073.59 2191.05 3072.89 2187.75 3071.49 2185.65C3070.19 2183.45 3067.69 2182.35 3063.99 2182.35V2179.2C3067.19 2179.5 3070.29 2179.65 3073.29 2179.65C3077.39 2179.65 3081.29 2179.5 3084.99 2179.2C3088.69 2178.8 3092.09 2178.25 3095.19 2177.55ZM3144.09 2217.45V2220.45C3140.99 2221.05 3137.89 2222.35 3134.79 2224.35C3131.69 2226.35 3128.54 2228.9 3125.34 2232L3113.79 2244L3115.29 2241.15L3140.94 2284.05C3142.04 2285.85 3143.19 2287.45 3144.39 2288.85C3145.59 2290.25 3147.04 2291.25 3148.74 2291.85V2295C3147.24 2294.9 3144.99 2294.8 3141.99 2294.7C3138.99 2294.5 3135.99 2294.4 3132.99 2294.4C3129.29 2294.4 3125.59 2294.5 3121.89 2294.7C3118.19 2294.8 3115.44 2294.9 3113.64 2295V2291.85C3115.64 2291.85 3116.99 2291.4 3117.69 2290.5C3118.39 2289.5 3118.29 2288.25 3117.39 2286.75L3102.54 2259.9C3101.34 2258 3100.14 2256.8 3098.94 2256.3C3097.84 2255.7 3096.34 2255.35 3094.44 2255.25V2252.4C3096.54 2252.2 3098.34 2251.85 3099.84 2251.35C3101.44 2250.85 3102.89 2249.9 3104.19 2248.5L3115.59 2237.4C3118.99 2234.2 3120.69 2231.35 3120.69 2228.85C3120.69 2226.35 3119.59 2224.35 3117.39 2222.85C3115.29 2221.35 3112.49 2220.55 3108.99 2220.45V2217.45C3111.79 2217.55 3114.84 2217.65 3118.14 2217.75C3121.44 2217.85 3124.24 2217.9 3126.54 2217.9C3128.54 2217.9 3130.64 2217.9 3132.84 2217.9C3135.14 2217.8 3137.29 2217.75 3139.29 2217.75C3141.29 2217.65 3142.89 2217.55 3144.09 2217.45ZM3245.18 2188.8C3244.78 2193.9 3244.48 2198.8 3244.28 2203.5C3244.18 2208.2 3244.13 2211.8 3244.13 2214.3C3244.13 2216.5 3244.18 2218.6 3244.28 2220.6C3244.38 2222.6 3244.48 2224.3 3244.58 2225.7H3241.13C3239.53 2217.3 3237.48 2210.65 3234.98 2205.75C3232.58 2200.85 3229.68 2197.4 3226.28 2195.4C3222.88 2193.3 3218.88 2192.25 3214.28 2192.25H3210.83V2277.9C3210.83 2281.9 3211.23 2284.9 3212.03 2286.9C3212.93 2288.9 3214.53 2290.25 3216.83 2290.95C3219.13 2291.55 3222.48 2291.9 3226.88 2292V2295C3223.78 2294.9 3219.63 2294.8 3214.43 2294.7C3209.33 2294.6 3203.98 2294.55 3198.38 2294.55C3192.88 2294.55 3187.68 2294.6 3182.78 2294.7C3177.88 2294.8 3173.93 2294.9 3170.93 2295V2292C3175.43 2291.9 3178.83 2291.55 3181.13 2290.95C3183.43 2290.25 3184.98 2288.9 3185.78 2286.9C3186.58 2284.9 3186.98 2281.9 3186.98 2277.9V2192.25H3183.68C3179.08 2192.25 3175.08 2193.3 3171.68 2195.4C3168.28 2197.4 3165.38 2200.85 3162.98 2205.75C3160.58 2210.55 3158.48 2217.2 3156.68 2225.7H3153.23C3153.43 2224.3 3153.53 2222.6 3153.53 2220.6C3153.63 2218.6 3153.68 2216.5 3153.68 2214.3C3153.68 2211.8 3153.58 2208.2 3153.38 2203.5C3153.28 2198.8 3153.03 2193.9 3152.63 2188.8C3157.23 2188.9 3162.23 2189 3167.63 2189.1C3173.13 2189.2 3178.63 2189.25 3184.13 2189.25C3189.63 2189.25 3194.58 2189.25 3198.98 2189.25C3203.48 2189.25 3208.43 2189.25 3213.83 2189.25C3219.33 2189.25 3224.83 2189.2 3230.33 2189.1C3235.83 2189 3240.78 2188.9 3245.18 2188.8Z" fill="#D6D5A8"/>
<path d="M2661.2 2394.35C2669.2 2394.35 2676.25 2396 2682.35 2399.3C2688.45 2402.5 2693.25 2407.1 2696.75 2413.1C2700.25 2419 2702 2425.95 2702 2433.95C2702 2441.95 2700.2 2449.15 2696.6 2455.55C2693.1 2461.85 2688.15 2466.85 2681.75 2470.55C2675.45 2474.25 2668.05 2476.1 2659.55 2476.1C2651.75 2476.1 2644.75 2474.45 2638.55 2471.15C2632.45 2467.85 2627.6 2463.25 2624 2457.35C2620.5 2451.35 2618.75 2444.35 2618.75 2436.35C2618.75 2428.45 2620.5 2421.35 2624 2415.05C2627.5 2408.65 2632.45 2403.6 2638.85 2399.9C2645.25 2396.2 2652.7 2394.35 2661.2 2394.35ZM2659.85 2397.05C2654.45 2397.05 2650 2400.5 2646.5 2407.4C2643.1 2414.2 2641.4 2423.7 2641.4 2435.9C2641.4 2444.9 2642.3 2452.15 2644.1 2457.65C2645.9 2463.15 2648.25 2467.15 2651.15 2469.65C2654.15 2472.15 2657.4 2473.4 2660.9 2473.4C2666.3 2473.4 2670.7 2469.95 2674.1 2463.05C2677.6 2456.15 2679.35 2446.6 2679.35 2434.4C2679.35 2425.4 2678.45 2418.15 2676.65 2412.65C2674.85 2407.15 2672.45 2403.2 2669.45 2400.8C2666.55 2398.3 2663.35 2397.05 2659.85 2397.05Z" fill="#D6D5A8"/>
<path d="M4738.3 2310.35C4742.5 2310.35 4746.15 2310.9 4749.25 2312C4752.45 2313 4754.75 2314 4756.15 2315C4759.55 2317.3 4761.65 2315.8 4762.45 2310.5H4765.6C4765.4 2313.3 4765.25 2316.75 4765.15 2320.85C4765.05 2324.85 4765 2330.2 4765 2336.9H4761.85C4761.35 2333.2 4760.4 2329.55 4759 2325.95C4757.6 2322.35 4755.55 2319.4 4752.85 2317.1C4750.25 2314.8 4746.85 2313.65 4742.65 2313.65C4739.75 2313.65 4737.3 2314.5 4735.3 2316.2C4733.3 2317.8 4732.3 2320.15 4732.3 2323.25C4732.3 2326.25 4733.2 2328.9 4735 2331.2C4736.8 2333.4 4739.1 2335.55 4741.9 2337.65C4744.8 2339.65 4747.8 2341.8 4750.9 2344.1C4754.2 2346.6 4757.2 2349.1 4759.9 2351.6C4762.6 2354 4764.75 2356.65 4766.35 2359.55C4767.95 2362.45 4768.75 2365.9 4768.75 2369.9C4768.75 2374.4 4767.45 2378.35 4764.85 2381.75C4762.25 2385.05 4758.8 2387.6 4754.5 2389.4C4750.3 2391.2 4745.6 2392.1 4740.4 2392.1C4737.4 2392.1 4734.7 2391.8 4732.3 2391.2C4730 2390.6 4728 2389.85 4726.3 2388.95C4725 2388.35 4723.75 2387.8 4722.55 2387.3C4721.45 2386.7 4720.4 2386.2 4719.4 2385.8C4718.4 2385.5 4717.5 2385.85 4716.7 2386.85C4716 2387.85 4715.45 2389.25 4715.05 2391.05H4711.9C4712.1 2387.85 4712.25 2383.95 4712.35 2379.35C4712.45 2374.75 4712.5 2368.65 4712.5 2361.05H4715.65C4716.25 2366.45 4717.35 2371.25 4718.95 2375.45C4720.55 2379.55 4722.7 2382.8 4725.4 2385.2C4728.2 2387.5 4731.7 2388.65 4735.9 2388.65C4737.6 2388.65 4739.25 2388.3 4740.85 2387.6C4742.45 2386.9 4743.75 2385.75 4744.75 2384.15C4745.85 2382.55 4746.4 2380.5 4746.4 2378C4746.4 2373.6 4744.95 2369.95 4742.05 2367.05C4739.25 2364.15 4735.65 2361 4731.25 2357.6C4728.05 2355 4725 2352.45 4722.1 2349.95C4719.3 2347.35 4717 2344.55 4715.2 2341.55C4713.4 2338.45 4712.5 2334.95 4712.5 2331.05C4712.5 2326.55 4713.7 2322.75 4716.1 2319.65C4718.5 2316.55 4721.65 2314.25 4725.55 2312.75C4729.55 2311.15 4733.8 2310.35 4738.3 2310.35Z" fill="#D6D5A8"/>
<path d="M4962.3 294.35C4966.5 294.35 4970.15 294.9 4973.25 296C4976.45 297 4978.75 298 4980.15 299C4983.55 301.3 4985.65 299.8 4986.45 294.5H4989.6C4989.4 297.3 4989.25 300.75 4989.15 304.85C4989.05 308.85 4989 314.2 4989 320.9H4985.85C4985.35 317.2 4984.4 313.55 4983 309.95C4981.6 306.35 4979.55 303.4 4976.85 301.1C4974.25 298.8 4970.85 297.65 4966.65 297.65C4963.75 297.65 4961.3 298.5 4959.3 300.2C4957.3 301.8 4956.3 304.15 4956.3 307.25C4956.3 310.25 4957.2 312.9 4959 315.2C4960.8 317.4 4963.1 319.55 4965.9 321.65C4968.8 323.65 4971.8 325.8 4974.9 328.1C4978.2 330.6 4981.2 333.1 4983.9 335.6C4986.6 338 4988.75 340.65 4990.35 343.55C4991.95 346.45 4992.75 349.9 4992.75 353.9C4992.75 358.4 4991.45 362.35 4988.85 365.75C4986.25 369.05 4982.8 371.6 4978.5 373.4C4974.3 375.2 4969.6 376.1 4964.4 376.1C4961.4 376.1 4958.7 375.8 4956.3 375.2C4954 374.6 4952 373.85 4950.3 372.95C4949 372.35 4947.75 371.8 4946.55 371.3C4945.45 370.7 4944.4 370.2 4943.4 369.8C4942.4 369.5 4941.5 369.85 4940.7 370.85C4940 371.85 4939.45 373.25 4939.05 375.05H4935.9C4936.1 371.85 4936.25 367.95 4936.35 363.35C4936.45 358.75 4936.5 352.65 4936.5 345.05H4939.65C4940.25 350.45 4941.35 355.25 4942.95 359.45C4944.55 363.55 4946.7 366.8 4949.4 369.2C4952.2 371.5 4955.7 372.65 4959.9 372.65C4961.6 372.65 4963.25 372.3 4964.85 371.6C4966.45 370.9 4967.75 369.75 4968.75 368.15C4969.85 366.55 4970.4 364.5 4970.4 362C4970.4 357.6 4968.95 353.95 4966.05 351.05C4963.25 348.15 4959.65 345 4955.25 341.6C4952.05 339 4949 336.45 4946.1 333.95C4943.3 331.35 4941 328.55 4939.2 325.55C4937.4 322.45 4936.5 318.95 4936.5 315.05C4936.5 310.55 4937.7 306.75 4940.1 303.65C4942.5 300.55 4945.65 298.25 4949.55 296.75C4953.55 295.15 4957.8 294.35 4962.3 294.35ZM5040.59 294.35C5049.39 294.35 5056.29 296.95 5061.29 302.15C5066.29 307.35 5068.79 315.85 5068.79 327.65H5019.44L5019.14 324.8H5049.89C5049.99 319.9 5049.69 315.4 5048.99 311.3C5048.29 307.1 5047.19 303.75 5045.69 301.25C5044.19 298.75 5042.19 297.5 5039.69 297.5C5036.19 297.5 5033.19 299.7 5030.69 304.1C5028.29 308.5 5026.84 315.8 5026.34 326L5026.79 326.9C5026.69 328.1 5026.59 329.35 5026.49 330.65C5026.49 331.95 5026.49 333.3 5026.49 334.7C5026.49 341.6 5027.44 347.2 5029.34 351.5C5031.34 355.8 5033.84 358.95 5036.84 360.95C5039.84 362.85 5042.89 363.8 5045.99 363.8C5048.09 363.8 5050.24 363.5 5052.44 362.9C5054.74 362.2 5057.04 361 5059.34 359.3C5061.64 357.5 5063.79 355 5065.79 351.8L5068.49 352.7C5067.29 356.5 5065.39 360.2 5062.79 363.8C5060.19 367.4 5056.89 370.35 5052.89 372.65C5048.89 374.95 5044.09 376.1 5038.49 376.1C5031.69 376.1 5025.69 374.65 5020.49 371.75C5015.29 368.85 5011.19 364.45 5008.19 358.55C5005.29 352.65 5003.84 345.15 5003.84 336.05C5003.84 326.75 5005.39 319 5008.49 312.8C5011.69 306.6 5016.04 302 5021.54 299C5027.14 295.9 5033.49 294.35 5040.59 294.35Z" fill="#D6D5A8"/>
<path d="M3643.2 1131.8V1223.3C3643.2 1228 3644.4 1231.1 3646.8 1232.6C3649.2 1234.2 3652.5 1235 3656.7 1235V1238.15C3654.1 1238.05 3650.5 1237.9 3645.9 1237.7C3641.4 1237.6 3636.6 1237.55 3631.5 1237.55C3627.8 1237.55 3624.15 1237.6 3620.55 1237.7C3617.05 1237.9 3614.4 1238.05 3612.6 1238.15V1235C3615.9 1235 3618.2 1234.3 3619.5 1232.9C3620.9 1231.5 3621.6 1228.8 3621.6 1224.8V1149.8C3621.6 1145.3 3620.9 1142 3619.5 1139.9C3618.1 1137.7 3615.6 1136.6 3612 1136.6V1133.45C3615.2 1133.75 3618.3 1133.9 3621.3 1133.9C3625.4 1133.9 3629.3 1133.75 3633 1133.45C3636.7 1133.05 3640.1 1132.5 3643.2 1131.8ZM3666.45 1131.35C3671.55 1131.35 3676.1 1132.75 3680.1 1135.55C3684.1 1138.25 3687.3 1142.4 3689.7 1148C3692.1 1153.5 3693.3 1160.4 3693.3 1168.7C3693.3 1176 3692.45 1182.4 3690.75 1187.9C3689.15 1193.4 3686.8 1198.05 3683.7 1201.85C3680.7 1205.55 3677.05 1208.35 3672.75 1210.25C3668.55 1212.15 3663.8 1213.1 3658.5 1213.1C3654.6 1213.1 3651.05 1212.4 3647.85 1211C3644.65 1209.7 3642.2 1207.8 3640.5 1205.3L3642 1203.35C3643 1205.15 3644.4 1206.55 3646.2 1207.55C3648.1 1208.55 3650.25 1209.05 3652.65 1209.05C3657.15 1209.05 3660.7 1207.55 3663.3 1204.55C3665.9 1201.45 3667.75 1197.15 3668.85 1191.65C3670.05 1186.05 3670.65 1179.4 3670.65 1171.7C3670.65 1163.1 3670.1 1156.35 3669 1151.45C3667.9 1146.55 3666.4 1143.05 3664.5 1140.95C3662.6 1138.85 3660.3 1137.8 3657.6 1137.8C3654 1137.8 3650.7 1139.2 3647.7 1142C3644.8 1144.8 3643.15 1148.8 3642.75 1154L3642 1148.75C3643.8 1143.05 3646.85 1138.75 3651.15 1135.85C3655.55 1132.85 3660.65 1131.35 3666.45 1131.35Z" fill="#D6D5A8"/>
<path d="M5112.2 1599.8V1691.3C5112.2 1696 5113.4 1699.1 5115.8 1700.6C5118.2 1702.2 5121.5 1703 5125.7 1703V1706.15C5123.1 1706.05 5119.5 1705.9 5114.9 1705.7C5110.4 1705.6 5105.6 1705.55 5100.5 1705.55C5096.8 1705.55 5093.15 1705.6 5089.55 1705.7C5086.05 1705.9 5083.4 1706.05 5081.6 1706.15V1703C5084.9 1703 5087.2 1702.3 5088.5 1700.9C5089.9 1699.5 5090.6 1696.8 5090.6 1692.8V1617.8C5090.6 1613.3 5089.9 1610 5088.5 1607.9C5087.1 1605.7 5084.6 1604.6 5081 1604.6V1601.45C5084.2 1601.75 5087.3 1601.9 5090.3 1601.9C5094.4 1601.9 5098.3 1601.75 5102 1601.45C5105.7 1601.05 5109.1 1600.5 5112.2 1599.8ZM5135.45 1599.35C5140.55 1599.35 5145.1 1600.75 5149.1 1603.55C5153.1 1606.25 5156.3 1610.4 5158.7 1616C5161.1 1621.5 5162.3 1628.4 5162.3 1636.7C5162.3 1644 5161.45 1650.4 5159.75 1655.9C5158.15 1661.4 5155.8 1666.05 5152.7 1669.85C5149.7 1673.55 5146.05 1676.35 5141.75 1678.25C5137.55 1680.15 5132.8 1681.1 5127.5 1681.1C5123.6 1681.1 5120.05 1680.4 5116.85 1679C5113.65 1677.7 5111.2 1675.8 5109.5 1673.3L5111 1671.35C5112 1673.15 5113.4 1674.55 5115.2 1675.55C5117.1 1676.55 5119.25 1677.05 5121.65 1677.05C5126.15 1677.05 5129.7 1675.55 5132.3 1672.55C5134.9 1669.45 5136.75 1665.15 5137.85 1659.65C5139.05 1654.05 5139.65 1647.4 5139.65 1639.7C5139.65 1631.1 5139.1 1624.35 5138 1619.45C5136.9 1614.55 5135.4 1611.05 5133.5 1608.95C5131.6 1606.85 5129.3 1605.8 5126.6 1605.8C5123 1605.8 5119.7 1607.2 5116.7 1610C5113.8 1612.8 5112.15 1616.8 5111.75 1622L5111 1616.75C5112.8 1611.05 5115.85 1606.75 5120.15 1603.85C5124.55 1600.85 5129.65 1599.35 5135.45 1599.35ZM5242.38 1601.45V1604.45C5240.48 1604.95 5238.68 1606.15 5236.98 1608.05C5235.28 1609.85 5233.63 1612.95 5232.03 1617.35L5210.13 1679.3C5208.53 1679.2 5206.88 1679.15 5205.18 1679.15C5203.58 1679.15 5201.98 1679.2 5200.38 1679.3L5173.68 1613C5172.08 1609.1 5170.48 1606.75 5168.88 1605.95C5167.38 1605.05 5166.08 1604.6 5164.98 1604.6V1601.45C5168.18 1601.65 5171.48 1601.85 5174.88 1602.05C5178.38 1602.15 5182.18 1602.2 5186.28 1602.2C5189.38 1602.2 5192.63 1602.15 5196.03 1602.05C5199.53 1601.85 5202.78 1601.65 5205.78 1601.45V1604.6C5203.68 1604.6 5201.78 1604.7 5200.08 1604.9C5198.48 1605.1 5197.38 1605.75 5196.78 1606.85C5196.18 1607.95 5196.28 1609.9 5197.08 1612.7L5214.63 1659.2L5213.13 1661.3L5224.98 1628.45C5226.88 1623.05 5227.68 1618.65 5227.38 1615.25C5227.08 1611.75 5225.98 1609.15 5224.08 1607.45C5222.18 1605.65 5219.63 1604.65 5216.43 1604.45V1601.45C5217.93 1601.55 5219.53 1601.65 5221.23 1601.75C5223.03 1601.75 5224.73 1601.8 5226.33 1601.9C5228.03 1601.9 5229.53 1601.9 5230.83 1601.9C5232.83 1601.9 5234.93 1601.85 5237.13 1601.75C5239.33 1601.65 5241.08 1601.55 5242.38 1601.45Z" fill="#D6D5A8"/>
<rect x="2972" y="2118" width="178" height="22" fill="#D6D5A8"/>
<rect x="2192" y="1867" width="1619" height="720" stroke="#D6D5A8" stroke-width="10"/>
<defs>
<clipPath id="clip0_202_166">
<rect width="413.495" height="413.495" fill="white" transform="translate(6082 1030)"/>
</clipPath>
<clipPath id="clip1_202_166">
<rect width="413.495" height="413.495" fill="white" transform="translate(6495.49 3183.81) rotate(-179.956)"/>
</clipPath>
</defs>
</svg>
