<svg width="2754" height="1993" viewBox="0 0 2754 1993" fill="none" xmlns="http://www.w3.org/2000/svg">
<g clip-path="url(#clip0_200_72)">
<path d="M440.426 1328.43H340.896C336.668 1328.43 333.239 1331.86 333.239 1336.08C333.239 1340.31 336.667 1343.74 340.896 1343.74H440.426C444.654 1343.74 448.082 1340.31 448.082 1336.08C448.083 1331.86 444.654 1328.43 440.426 1328.43Z" fill="#D6D5A8"/>
<path d="M440.426 1359.55H340.896C336.668 1359.55 333.239 1362.98 333.239 1367.21C333.239 1371.44 336.667 1374.87 340.896 1374.87H440.426C444.654 1374.87 448.082 1371.44 448.082 1367.21C448.082 1362.98 444.654 1359.55 440.426 1359.55Z" fill="#D6D5A8"/>
<path d="M413.944 1390.68H367.254C363.026 1390.68 359.597 1394.11 359.597 1398.34C359.597 1402.57 363.025 1405.99 367.254 1405.99H413.944C418.172 1405.99 421.601 1402.57 421.601 1398.34C421.601 1394.11 418.172 1390.68 413.944 1390.68Z" fill="#D6D5A8"/>
<path d="M394.49 916C310.888 916 242.873 984.015 242.873 1067.62C242.873 1098.39 252.111 1127.77 269.588 1152.6C285.499 1175.2 307.432 1193.01 333.24 1204.36V1242.83H325.584C321.356 1242.83 317.927 1246.26 317.927 1250.49V1304.96C317.927 1309.19 321.355 1312.61 325.584 1312.61H455.738C459.966 1312.61 463.395 1309.19 463.395 1304.96V1250.49C463.395 1246.26 459.967 1242.83 455.738 1242.83H448.082V1204.68C475.951 1194.28 499.654 1177.1 516.874 1154.72C535.997 1129.87 546.106 1099.75 546.106 1067.62C546.106 984.015 478.091 916 394.49 916ZM448.082 1297.3H333.241V1258.14H448.082V1297.3ZM504.739 1145.38C488.312 1166.72 465.229 1182.85 437.987 1192.02C434.788 1193.1 432.777 1196.08 432.777 1199.28H432.77V1242.83H417.459V1107.4C417.459 1103.18 414.031 1099.75 409.802 1099.75C405.574 1099.75 402.145 1103.18 402.145 1107.4V1242.83H379.177V1107.4C379.177 1103.18 375.749 1099.75 371.521 1099.75C367.293 1099.75 363.864 1103.18 363.864 1107.4V1242.83H348.553V1199.28H348.549C348.548 1196.24 346.736 1193.37 343.748 1192.17C318.606 1182.08 297.291 1165.35 282.109 1143.78C266.458 1121.55 258.186 1095.21 258.186 1067.62C258.186 992.459 319.331 931.315 394.489 931.315C469.647 931.315 530.793 992.458 530.793 1067.62C530.793 1096.34 521.785 1123.23 504.739 1145.38Z" fill="#D6D5A8"/>
<path d="M403.652 961.938C403.652 957.71 400.224 954.281 395.995 954.281C358.277 954.281 322.905 974.47 303.681 1006.97C301.528 1010.61 302.733 1015.3 306.372 1017.46C307.595 1018.18 308.937 1018.52 310.263 1018.52C312.881 1018.52 315.431 1017.18 316.859 1014.76C333.341 986.902 363.665 969.594 395.995 969.594C400.224 969.594 403.652 966.166 403.652 961.938Z" fill="#D6D5A8"/>
<path d="M300.889 1031.04C296.781 1030.08 292.65 1032.62 291.678 1036.74C289.775 1044.79 288.809 1053.11 288.809 1061.47C288.809 1065.69 292.237 1069.12 296.466 1069.12C300.694 1069.12 304.123 1065.7 304.123 1061.47C304.123 1054.3 304.949 1047.16 306.581 1040.26C307.553 1036.14 305.005 1032.02 300.889 1031.04Z" fill="#D6D5A8"/>
<path d="M424.147 1063.71C422.711 1062.27 420.764 1061.47 418.734 1061.47C416.704 1061.47 414.756 1062.27 413.321 1063.71L404.699 1072.33L396.077 1063.71C394.641 1062.27 392.694 1061.47 390.664 1061.47C388.634 1061.47 386.686 1062.27 385.251 1063.71L376.628 1072.33L368.005 1063.71C366.569 1062.27 364.622 1061.47 362.592 1061.47C360.562 1061.47 358.614 1062.27 357.179 1063.71L343.143 1077.75C340.153 1080.74 340.153 1085.58 343.143 1088.57C346.134 1091.56 350.981 1091.56 353.97 1088.57L362.592 1079.95L371.214 1088.57C372.65 1090.01 374.597 1090.82 376.627 1090.82C378.657 1090.82 380.605 1090.01 382.04 1088.57L390.664 1079.95L399.286 1088.57C400.722 1090.01 402.669 1090.82 404.699 1090.82C406.729 1090.82 408.677 1090.01 410.112 1088.57L418.734 1079.95L427.358 1088.57C428.852 1090.07 430.812 1090.82 432.771 1090.82C434.73 1090.82 436.69 1090.07 438.184 1088.57C441.174 1085.58 441.174 1080.74 438.184 1077.75L424.147 1063.71Z" fill="#D6D5A8"/>
</g>
<g clip-path="url(#clip1_200_72)">
<path d="M98.785 974.362C106.054 974.301 111.89 967.813 111.823 959.87L110.786 836.866C110.674 823.631 117.409 820.626 125.833 830.152L157.037 865.455C159.765 868.543 163.415 870.08 167.051 870.05C170.447 870.021 173.852 868.621 176.483 865.842C181.953 860.077 182.092 850.565 176.808 844.583L108.182 766.959C105.591 764.018 102.015 762.361 98.2858 762.359C94.5529 762.4 90.9955 764.002 88.4056 766.939L18.744 845.745C13.4642 851.705 13.6235 861.224 19.0812 866.993C24.5478 872.767 33.2588 872.602 38.5299 866.642L69.0522 832.117C77.4606 822.602 84.3691 825.622 84.4808 838.857L85.5038 960.092C85.5709 968.035 91.5164 974.423 98.785 974.362Z" fill="#D6D5A8"/>
</g>
<rect x="373.492" y="247" width="35" height="680" rx="17.5" fill="#D6D5A8"/>
<rect x="1171.49" y="241" width="35" height="686" rx="17.5" fill="#D6D5A8"/>
<rect x="1723.49" y="257" width="35" height="1727" rx="17.5" fill="#D6D5A8"/>
<rect x="1171.49" y="1189" width="35" height="795" rx="17.5" fill="#D6D5A8"/>
<rect x="2573.49" y="561" width="35" height="1424" rx="17.5" fill="#D6D5A8"/>
<rect width="35" height="578" rx="17.5" transform="matrix(1 0 0 -1 373.492 1984)" fill="#D6D5A8"/>
<rect width="29.2099" height="814.999" rx="14.6049" transform="matrix(-0.00350281 0.999994 -0.999997 -0.00243972 1188.76 242.988)" fill="#D6D5A8"/>
<rect width="29.2099" height="1390.09" rx="14.6049" transform="matrix(-0.00350281 0.999994 -0.999997 -0.00243972 2578.68 248.391)" fill="#D6D5A8"/>
<rect width="29.2099" height="1424.95" rx="14.6049" transform="matrix(-0.00350281 0.999994 -0.999997 -0.00243972 2598.54 1963.48)" fill="#D6D5A8"/>
<rect width="24.8242" height="814.998" rx="12.4121" transform="matrix(-0.00412164 -0.999991 -0.999998 0.0020734 1188.76 1987.31)" fill="#D6D5A8"/>
<g clip-path="url(#clip2_200_72)">
<path d="M1196.4 1244.06L1196.86 1202.06C1271.67 1197.8 1331.58 1137.14 1332.4 1062.49C1333.22 987.838 1274.65 925.875 1199.95 919.981L1200.42 877.156L1180.35 876.937L1179.88 919.761C1105.08 924.018 1045.17 984.683 1044.35 1059.33C1043.53 1133.98 1102.1 1195.95 1176.8 1201.84L1176.34 1243.84L1196.4 1244.06ZM1064.42 1059.55C1065.11 995.77 1115.94 943.846 1179.67 939.513L1179.01 1000.06L1105.34 999.253L1169.37 1100.93L1105.16 1100.22L1104.94 1119.92L1177.68 1120.72L1177.01 1182.09C1113.39 1176.36 1063.72 1123.34 1064.42 1059.55ZM1236.29 1020.39L1188.14 1093.27L1141.59 1019.35L1236.29 1020.39ZM1197.75 1120.94L1270.5 1121.74L1270.71 1102.04L1206.73 1101.34L1272.97 1001.09L1199.07 1000.28L1199.74 939.733C1263.36 945.461 1313.03 998.485 1312.33 1062.27C1311.63 1126.05 1260.81 1177.97 1197.08 1182.31L1197.75 1120.94Z" fill="#D6D5A8"/>
</g>
<g clip-path="url(#clip3_200_72)">
<path d="M2600.31 515.896C2599.74 517.793 2598.12 519 2596.37 519C2595.95 519 2595.52 518.929 2595.1 518.781C2591.44 517.497 2589.54 517.498 2585.89 518.781C2583.71 519.544 2581.38 518.252 2580.68 515.896C2579.98 513.54 2581.17 511.012 2583.34 510.25C2588.62 508.397 2592.36 508.397 2597.64 510.25C2599.82 511.011 2601.01 513.539 2600.31 515.896ZM2658.26 460.133C2654.26 466.414 2647.32 470.164 2639.68 470.164C2633.03 470.164 2625.6 466.477 2617.72 462.574C2608.79 458.143 2599.55 453.561 2590.49 453.5C2581.44 453.561 2572.2 458.143 2563.26 462.574C2555.39 466.477 2547.95 470.164 2541.3 470.164C2533.67 470.164 2526.72 466.414 2522.72 460.133C2515.13 448.209 2520.98 434.734 2526.14 422.845C2526.14 422.845 2552.8 363.716 2554.21 360.518C2565.13 335.676 2572.02 321.48 2577.08 317.608C2581.02 314.593 2585.66 313 2590.49 313C2595.33 313 2599.97 314.593 2603.91 317.607C2608.97 321.48 2615.85 335.677 2626.78 360.521C2628.18 363.718 2654.85 422.848 2654.85 422.848C2660 434.736 2665.85 448.21 2658.26 460.133ZM2647.36 426.665C2647.36 426.665 2629.91 387.662 2622.89 372.412C2621.97 370.414 2620.74 367.618 2619.31 364.381C2614.55 353.551 2603.39 328.19 2599.14 324.934C2596.6 322.994 2593.61 321.967 2590.49 321.967C2587.37 321.967 2584.38 322.994 2581.85 324.935C2577.59 328.19 2566.44 353.549 2561.67 364.378C2560.25 367.616 2533.62 426.663 2533.62 426.663C2529 437.306 2524.64 447.359 2529.53 455.039C2531.99 458.894 2536.39 461.196 2541.3 461.196C2546.15 461.196 2552.79 457.904 2559.82 454.418C2569.11 449.815 2579.63 444.596 2590.47 444.532C2590.48 444.532 2590.48 444.532 2590.49 444.532C2590.5 444.532 2590.51 444.532 2590.51 444.532C2601.35 444.596 2611.88 449.815 2621.16 454.418C2628.19 457.904 2634.83 461.196 2639.68 461.196C2644.6 461.196 2649 458.894 2651.45 455.039C2656.34 447.361 2651.98 437.308 2647.36 426.665ZM2623.27 493.379C2621.93 497.022 2619.3 499.911 2616.05 501.305C2614.6 501.929 2613.09 502.24 2611.58 502.24C2609.83 502.24 2608.09 501.824 2606.45 500.995C2593.03 494.193 2587.96 494.193 2574.54 500.992C2571.47 502.539 2568.06 502.65 2564.93 501.304C2561.69 499.911 2559.06 497.022 2557.71 493.378C2555.04 486.144 2557.98 477.677 2564.27 474.505C2584.61 464.197 2596.37 464.195 2616.72 474.505C2623 477.679 2625.94 486.145 2623.27 493.379ZM2613.23 482.635C2613.22 482.634 2613.22 482.633 2613.22 482.632C2595.17 473.482 2585.82 473.482 2567.76 482.632C2565.43 483.812 2564.34 487.207 2565.39 490.048C2565.9 491.435 2566.82 492.472 2567.98 492.968C2568.68 493.271 2569.79 493.5 2571.04 492.866C2578.86 488.906 2584.67 486.926 2590.49 486.926C2596.31 486.926 2602.13 488.907 2609.95 492.869C2611.2 493.501 2612.3 493.271 2613.01 492.968C2614.16 492.472 2615.08 491.435 2615.59 490.049C2616.64 487.206 2615.56 483.812 2613.23 482.635Z" fill="#D6D5A8"/>
</g>
<g clip-path="url(#clip4_200_72)">
<path d="M1334.49 621.366C1327.22 621.394 1321.36 627.854 1321.39 635.797L1321.85 758.805C1321.9 772.04 1315.15 775.014 1306.77 765.448L1275.73 730C1273.02 726.899 1269.38 725.346 1265.74 725.359C1262.34 725.372 1258.93 726.756 1256.29 729.522C1250.79 735.262 1250.61 744.774 1255.86 750.78L1324.13 828.723C1326.71 831.676 1330.27 833.35 1334 833.37C1337.74 833.346 1341.3 831.76 1343.9 828.836L1413.93 750.355C1419.24 744.42 1419.12 734.9 1413.69 729.105C1408.25 723.306 1399.54 723.43 1394.24 729.366L1363.56 763.748C1355.11 773.224 1348.21 770.172 1348.16 756.936L1347.71 635.698C1347.68 627.755 1341.76 621.339 1334.49 621.366Z" fill="#D6D5A8"/>
</g>
<g clip-path="url(#clip5_200_72)">
<path d="M1979.49 622.366C1972.22 622.394 1966.36 628.854 1966.39 636.797L1966.85 759.805C1966.9 773.04 1960.15 776.014 1951.77 766.448L1920.73 731C1918.02 727.899 1914.38 726.346 1910.74 726.359C1907.34 726.372 1903.93 727.756 1901.29 730.522C1895.79 736.262 1895.61 745.774 1900.86 751.78L1969.13 829.723C1971.71 832.676 1975.27 834.35 1979 834.37C1982.74 834.346 1986.3 832.76 1988.9 829.836L2058.93 751.355C2064.24 745.42 2064.12 735.9 2058.69 730.105C2053.25 724.306 2044.54 724.43 2039.24 730.366L2008.56 764.748C2000.11 774.224 1993.21 771.172 1993.16 757.936L1992.71 636.698C1992.68 628.755 1986.76 622.339 1979.49 622.366Z" fill="#D6D5A8"/>
</g>
<path d="M1414.79 893.2V895.2C1412.66 895.267 1411.03 895.533 1409.89 896C1408.83 896.4 1408.13 897.2 1407.79 898.4C1407.46 899.533 1407.29 901.333 1407.29 903.8V953.4C1407.29 955.8 1407.46 957.6 1407.79 958.8C1408.19 960 1408.93 960.8 1409.99 961.2C1411.06 961.6 1412.66 961.867 1414.79 962V964C1412.99 963.867 1410.73 963.8 1407.99 963.8C1405.26 963.733 1402.49 963.7 1399.69 963.7C1396.43 963.7 1393.39 963.733 1390.59 963.8C1387.86 963.8 1385.63 963.867 1383.89 964V962C1386.03 961.867 1387.63 961.6 1388.69 961.2C1389.76 960.8 1390.46 960 1390.79 958.8C1391.19 957.6 1391.39 955.8 1391.39 953.4V903.8C1391.39 901.333 1391.19 899.533 1390.79 898.4C1390.46 897.2 1389.73 896.4 1388.59 896C1387.53 895.533 1385.96 895.267 1383.89 895.2V893.2C1385.63 893.267 1387.86 893.333 1390.59 893.4C1393.39 893.467 1396.43 893.5 1399.69 893.5C1402.49 893.5 1405.26 893.467 1407.99 893.4C1410.73 893.333 1412.99 893.267 1414.79 893.2Z" fill="white"/>
<path d="M1869.89 968.2C1871.56 968.267 1873.79 968.333 1876.59 968.4C1879.46 968.467 1882.29 968.5 1885.09 968.5C1888.29 968.5 1891.39 968.467 1894.39 968.4C1897.39 968.333 1899.53 968.3 1900.79 968.3C1906.99 968.3 1912.13 969 1916.19 970.4C1920.33 971.733 1923.39 973.7 1925.39 976.3C1927.46 978.9 1928.49 982.033 1928.49 985.7C1928.49 987.967 1928.03 990.267 1927.09 992.6C1926.16 994.867 1924.56 997 1922.29 999C1920.09 1000.93 1917.06 1002.5 1913.19 1003.7C1909.33 1004.83 1904.46 1005.4 1898.59 1005.4H1888.99V1003.4H1897.59C1901.53 1003.4 1904.49 1002.67 1906.49 1001.2C1908.56 999.667 1909.96 997.667 1910.69 995.2C1911.49 992.667 1911.89 989.867 1911.89 986.8C1911.89 981.533 1910.96 977.467 1909.09 974.6C1907.23 971.667 1904.03 970.2 1899.49 970.2C1896.89 970.2 1895.19 970.767 1894.39 971.9C1893.66 973.033 1893.29 975.333 1893.29 978.8V1028.4C1893.29 1030.8 1893.46 1032.6 1893.79 1033.8C1894.19 1035 1894.93 1035.8 1895.99 1036.2C1897.06 1036.6 1898.66 1036.87 1900.79 1037V1039C1898.99 1038.87 1896.73 1038.8 1893.99 1038.8C1891.26 1038.73 1888.49 1038.7 1885.69 1038.7C1882.49 1038.7 1879.46 1038.73 1876.59 1038.8C1873.79 1038.8 1871.56 1038.87 1869.89 1039V1037C1872.03 1036.87 1873.63 1036.6 1874.69 1036.2C1875.76 1035.8 1876.46 1035 1876.79 1033.8C1877.19 1032.6 1877.39 1030.8 1877.39 1028.4V978.8C1877.39 976.333 1877.19 974.533 1876.79 973.4C1876.46 972.2 1875.73 971.4 1874.59 971C1873.53 970.533 1871.96 970.267 1869.89 970.2V968.2ZM1888.79 1003.7C1891.66 1003.77 1894.13 1003.9 1896.19 1004.1C1898.33 1004.3 1900.19 1004.5 1901.79 1004.7C1903.39 1004.83 1904.83 1004.93 1906.09 1005C1912.16 1005.53 1916.63 1006.83 1919.49 1008.9C1922.43 1010.97 1924.33 1014.07 1925.19 1018.2L1927.49 1028.5C1928.09 1031.17 1928.73 1033.03 1929.39 1034.1C1930.06 1035.17 1931.03 1035.7 1932.29 1035.7C1933.16 1035.63 1933.86 1035.43 1934.39 1035.1C1934.99 1034.7 1935.63 1034.13 1936.29 1033.4L1937.69 1034.6C1935.89 1036.67 1933.96 1038.13 1931.89 1039C1929.83 1039.93 1927.33 1040.4 1924.39 1040.4C1920.79 1040.4 1917.83 1039.63 1915.49 1038.1C1913.16 1036.57 1911.63 1033.73 1910.89 1029.6L1909.09 1019.6C1908.63 1016.8 1908.06 1014.37 1907.39 1012.3C1906.73 1010.17 1905.79 1008.5 1904.59 1007.3C1903.46 1006.03 1901.86 1005.4 1899.79 1005.4H1888.99L1888.79 1003.7Z" fill="white"/>
<path d="M2129.79 624.2V626.2C2127.66 626.267 2126.03 626.533 2124.89 627C2123.83 627.4 2123.13 628.2 2122.79 629.4C2122.46 630.533 2122.29 632.333 2122.29 634.8V684.4C2122.29 686.8 2122.46 688.6 2122.79 689.8C2123.19 691 2123.93 691.8 2124.99 692.2C2126.06 692.6 2127.66 692.867 2129.79 693V695C2127.99 694.867 2125.73 694.8 2122.99 694.8C2120.26 694.733 2117.49 694.7 2114.69 694.7C2111.43 694.7 2108.39 694.733 2105.59 694.8C2102.86 694.8 2100.63 694.867 2098.89 695V693C2101.03 692.867 2102.63 692.6 2103.69 692.2C2104.76 691.8 2105.46 691 2105.79 689.8C2106.19 688.6 2106.39 686.8 2106.39 684.4V634.8C2106.39 632.333 2106.19 630.533 2105.79 629.4C2105.46 628.2 2104.73 627.4 2103.59 627C2102.53 626.533 2100.96 626.267 2098.89 626.2V624.2C2100.63 624.267 2102.86 624.333 2105.59 624.4C2108.39 624.467 2111.43 624.5 2114.69 624.5C2117.49 624.5 2120.26 624.467 2122.99 624.4C2125.73 624.333 2127.99 624.267 2129.79 624.2Z" fill="white"/>
<path d="M1636.89 37.2C1638.56 37.2667 1640.79 37.3333 1643.59 37.4C1646.46 37.4667 1649.29 37.5 1652.09 37.5C1655.29 37.5 1658.39 37.4667 1661.39 37.4C1664.39 37.3333 1666.53 37.3 1667.79 37.3C1673.99 37.3 1679.13 38 1683.19 39.4C1687.33 40.7333 1690.39 42.7 1692.39 45.3C1694.46 47.9 1695.49 51.0333 1695.49 54.7C1695.49 56.9667 1695.03 59.2667 1694.09 61.6C1693.16 63.8667 1691.56 66 1689.29 68C1687.09 69.9333 1684.06 71.5 1680.19 72.7C1676.33 73.8333 1671.46 74.4 1665.59 74.4H1655.99V72.4H1664.59C1668.53 72.4 1671.49 71.6667 1673.49 70.2C1675.56 68.6667 1676.96 66.6667 1677.69 64.2C1678.49 61.6667 1678.89 58.8667 1678.89 55.8C1678.89 50.5333 1677.96 46.4667 1676.09 43.6C1674.23 40.6667 1671.03 39.2 1666.49 39.2C1663.89 39.2 1662.19 39.7667 1661.39 40.9C1660.66 42.0333 1660.29 44.3333 1660.29 47.8V97.4C1660.29 99.8 1660.46 101.6 1660.79 102.8C1661.19 104 1661.93 104.8 1662.99 105.2C1664.06 105.6 1665.66 105.867 1667.79 106V108C1665.99 107.867 1663.73 107.8 1660.99 107.8C1658.26 107.733 1655.49 107.7 1652.69 107.7C1649.49 107.7 1646.46 107.733 1643.59 107.8C1640.79 107.8 1638.56 107.867 1636.89 108V106C1639.03 105.867 1640.63 105.6 1641.69 105.2C1642.76 104.8 1643.46 104 1643.79 102.8C1644.19 101.6 1644.39 99.8 1644.39 97.4V47.8C1644.39 45.3333 1644.19 43.5333 1643.79 42.4C1643.46 41.2 1642.73 40.4 1641.59 40C1640.53 39.5333 1638.96 39.2667 1636.89 39.2V37.2ZM1655.79 72.7C1658.66 72.7667 1661.13 72.9 1663.19 73.1C1665.33 73.3 1667.19 73.5 1668.79 73.7C1670.39 73.8333 1671.83 73.9333 1673.09 74C1679.16 74.5333 1683.63 75.8333 1686.49 77.9C1689.43 79.9667 1691.33 83.0667 1692.19 87.2L1694.49 97.5C1695.09 100.167 1695.73 102.033 1696.39 103.1C1697.06 104.167 1698.03 104.7 1699.29 104.7C1700.16 104.633 1700.86 104.433 1701.39 104.1C1701.99 103.7 1702.63 103.133 1703.29 102.4L1704.69 103.6C1702.89 105.667 1700.96 107.133 1698.89 108C1696.83 108.933 1694.33 109.4 1691.39 109.4C1687.79 109.4 1684.83 108.633 1682.49 107.1C1680.16 105.567 1678.63 102.733 1677.89 98.6L1676.09 88.6C1675.63 85.8 1675.06 83.3667 1674.39 81.3C1673.73 79.1667 1672.79 77.5 1671.59 76.3C1670.46 75.0333 1668.86 74.4 1666.79 74.4H1655.99L1655.79 72.7Z" fill="white"/>
<path d="M2753.29 931.2V933.2C2751.83 933.733 2750.26 934.9 2748.59 936.7C2746.99 938.5 2745.49 941.3 2744.09 945.1L2722.99 1002.2C2722.46 1002.13 2721.89 1002.1 2721.29 1002.1C2720.69 1002.1 2720.09 1002.1 2719.49 1002.1C2718.96 1002.1 2718.39 1002.1 2717.79 1002.1C2717.19 1002.1 2716.63 1002.13 2716.09 1002.2L2690.59 939.6C2689.66 937.2 2688.63 935.567 2687.49 934.7C2686.36 933.767 2685.29 933.267 2684.29 933.2V931.2C2686.29 931.267 2688.63 931.333 2691.29 931.4C2694.03 931.467 2696.76 931.5 2699.49 931.5C2702.56 931.5 2705.43 931.467 2708.09 931.4C2710.83 931.333 2713.03 931.267 2714.69 931.2V933.2C2712.56 933.267 2710.89 933.533 2709.69 934C2708.49 934.4 2707.83 935.2 2707.69 936.4C2707.56 937.533 2707.96 939.267 2708.89 941.6L2727.09 987.9L2724.99 990.4L2738.79 953.2C2740.59 948.2 2741.53 944.267 2741.59 941.4C2741.66 938.533 2740.96 936.467 2739.49 935.2C2738.03 933.933 2735.93 933.267 2733.19 933.2V931.2C2735.46 931.267 2737.59 931.333 2739.59 931.4C2741.59 931.467 2743.63 931.5 2745.69 931.5C2747.16 931.5 2748.53 931.467 2749.79 931.4C2751.13 931.333 2752.29 931.267 2753.29 931.2Z" fill="white"/>
<path d="M71.7922 1087.2V1089.2C69.6589 1089.27 68.0255 1089.53 66.8922 1090C65.8255 1090.4 65.1255 1091.2 64.7922 1092.4C64.4589 1093.53 64.2922 1095.33 64.2922 1097.8V1147.4C64.2922 1149.8 64.4589 1151.6 64.7922 1152.8C65.1922 1154 65.9255 1154.8 66.9922 1155.2C68.0589 1155.6 69.6589 1155.87 71.7922 1156V1158C69.9922 1157.87 67.7255 1157.8 64.9922 1157.8C62.2589 1157.73 59.4922 1157.7 56.6922 1157.7C53.4255 1157.7 50.3922 1157.73 47.5922 1157.8C44.8589 1157.8 42.6255 1157.87 40.8922 1158V1156C43.0255 1155.87 44.6255 1155.6 45.6922 1155.2C46.7589 1154.8 47.4589 1154 47.7922 1152.8C48.1922 1151.6 48.3922 1149.8 48.3922 1147.4V1097.8C48.3922 1095.33 48.1922 1093.53 47.7922 1092.4C47.4589 1091.2 46.7255 1090.4 45.5922 1090C44.5255 1089.53 42.9589 1089.27 40.8922 1089.2V1087.2C42.6255 1087.27 44.8589 1087.33 47.5922 1087.4C50.3922 1087.47 53.4255 1087.5 56.6922 1087.5C59.4922 1087.5 62.2589 1087.47 64.9922 1087.4C67.7255 1087.33 69.9922 1087.27 71.7922 1087.2Z" fill="white"/>
<path d="M1458.29 946.85V980.5C1458.29 982 1458.53 983.117 1458.99 983.85C1459.46 984.55 1460.29 984.9 1461.49 984.9V985.95C1460.46 985.85 1459.43 985.8 1458.39 985.8C1456.99 985.8 1455.68 985.85 1454.44 985.95C1453.24 986.05 1452.13 986.233 1451.09 986.5V952.85C1451.09 951.35 1450.86 950.25 1450.39 949.55C1449.96 948.817 1449.13 948.45 1447.89 948.45V947.4C1448.96 947.5 1449.99 947.55 1450.99 947.55C1452.36 947.55 1453.66 947.5 1454.89 947.4C1456.13 947.267 1457.26 947.083 1458.29 946.85ZM1445.54 959.45C1447.01 959.45 1448.29 959.7 1449.39 960.2C1450.53 960.667 1451.41 961.467 1452.04 962.6L1451.44 963.15C1451.01 962.35 1450.43 961.783 1449.69 961.45C1448.99 961.083 1448.24 960.9 1447.44 960.9C1445.74 960.9 1444.39 961.9 1443.39 963.9C1442.39 965.867 1441.91 968.917 1441.94 973.05C1441.94 975.883 1442.13 978.15 1442.49 979.85C1442.89 981.517 1443.44 982.717 1444.14 983.45C1444.88 984.183 1445.71 984.55 1446.64 984.55C1447.78 984.55 1448.79 984.1 1449.69 983.2C1450.59 982.3 1451.08 981.083 1451.14 979.55L1451.39 981.3C1450.89 983.067 1450.08 984.417 1448.94 985.35C1447.84 986.25 1446.39 986.7 1444.59 986.7C1442.63 986.7 1440.86 986.217 1439.29 985.25C1437.76 984.283 1436.56 982.8 1435.69 980.8C1434.83 978.767 1434.39 976.15 1434.39 972.95C1434.39 969.917 1434.88 967.417 1435.84 965.45C1436.81 963.45 1438.13 961.95 1439.79 960.95C1441.49 959.95 1443.41 959.45 1445.54 959.45Z" fill="white"/>
<path d="M1963.59 1049.45C1964.99 1049.45 1966.21 1049.63 1967.24 1050C1968.31 1050.33 1969.08 1050.67 1969.54 1051C1970.68 1051.77 1971.38 1051.27 1971.64 1049.5H1972.69C1972.63 1050.43 1972.58 1051.58 1972.54 1052.95C1972.51 1054.28 1972.49 1056.07 1972.49 1058.3H1971.44C1971.28 1057.07 1970.96 1055.85 1970.49 1054.65C1970.03 1053.45 1969.34 1052.47 1968.44 1051.7C1967.58 1050.93 1966.44 1050.55 1965.04 1050.55C1964.08 1050.55 1963.26 1050.83 1962.59 1051.4C1961.93 1051.93 1961.59 1052.72 1961.59 1053.75C1961.59 1054.75 1961.89 1055.63 1962.49 1056.4C1963.09 1057.13 1963.86 1057.85 1964.79 1058.55C1965.76 1059.22 1966.76 1059.93 1967.79 1060.7C1968.89 1061.53 1969.89 1062.37 1970.79 1063.2C1971.69 1064 1972.41 1064.88 1972.94 1065.85C1973.48 1066.82 1973.74 1067.97 1973.74 1069.3C1973.74 1070.8 1973.31 1072.12 1972.44 1073.25C1971.58 1074.35 1970.43 1075.2 1968.99 1075.8C1967.59 1076.4 1966.03 1076.7 1964.29 1076.7C1963.29 1076.7 1962.39 1076.6 1961.59 1076.4C1960.83 1076.2 1960.16 1075.95 1959.59 1075.65C1959.16 1075.45 1958.74 1075.27 1958.34 1075.1C1957.98 1074.9 1957.63 1074.73 1957.29 1074.6C1956.96 1074.5 1956.66 1074.62 1956.39 1074.95C1956.16 1075.28 1955.98 1075.75 1955.84 1076.35H1954.79C1954.86 1075.28 1954.91 1073.98 1954.94 1072.45C1954.98 1070.92 1954.99 1068.88 1954.99 1066.35H1956.04C1956.24 1068.15 1956.61 1069.75 1957.14 1071.15C1957.68 1072.52 1958.39 1073.6 1959.29 1074.4C1960.23 1075.17 1961.39 1075.55 1962.79 1075.55C1963.36 1075.55 1963.91 1075.43 1964.44 1075.2C1964.98 1074.97 1965.41 1074.58 1965.74 1074.05C1966.11 1073.52 1966.29 1072.83 1966.29 1072C1966.29 1070.53 1965.81 1069.32 1964.84 1068.35C1963.91 1067.38 1962.71 1066.33 1961.24 1065.2C1960.18 1064.33 1959.16 1063.48 1958.19 1062.65C1957.26 1061.78 1956.49 1060.85 1955.89 1059.85C1955.29 1058.82 1954.99 1057.65 1954.99 1056.35C1954.99 1054.85 1955.39 1053.58 1956.19 1052.55C1956.99 1051.52 1958.04 1050.75 1959.34 1050.25C1960.68 1049.72 1962.09 1049.45 1963.59 1049.45ZM1986.94 1036.9V1054.1C1987.77 1052.37 1988.89 1051.17 1990.29 1050.5C1991.72 1049.8 1993.32 1049.45 1995.09 1049.45C1996.52 1049.45 1997.67 1049.63 1998.54 1050C1999.4 1050.33 2000.09 1050.8 2000.59 1051.4C2001.15 1052.03 2001.55 1052.85 2001.79 1053.85C2002.05 1054.85 2002.19 1056.2 2002.19 1057.9V1071.35C2002.19 1072.75 2002.42 1073.7 2002.89 1074.2C2003.39 1074.7 2004.22 1074.95 2005.39 1074.95V1076C2004.75 1075.97 2003.79 1075.93 2002.49 1075.9C2001.22 1075.83 1999.99 1075.8 1998.79 1075.8C1997.49 1075.8 1996.22 1075.83 1994.99 1075.9C1993.79 1075.93 1992.89 1075.97 1992.29 1076V1074.95C1993.29 1074.95 1993.99 1074.7 1994.39 1074.2C1994.79 1073.7 1994.99 1072.75 1994.99 1071.35V1055.8C1994.99 1054.97 1994.9 1054.25 1994.74 1053.65C1994.57 1053.02 1994.25 1052.53 1993.79 1052.2C1993.35 1051.83 1992.72 1051.65 1991.89 1051.65C1990.99 1051.65 1990.15 1051.9 1989.39 1052.4C1988.65 1052.87 1988.05 1053.53 1987.59 1054.4C1987.15 1055.27 1986.94 1056.27 1986.94 1057.4V1071.35C1986.94 1072.75 1987.14 1073.7 1987.54 1074.2C1987.94 1074.7 1988.64 1074.95 1989.64 1074.95V1076C1989.04 1075.97 1988.15 1075.93 1986.99 1075.9C1985.82 1075.83 1984.64 1075.8 1983.44 1075.8C1982.14 1075.8 1980.82 1075.83 1979.49 1075.9C1978.19 1075.93 1977.2 1075.97 1976.54 1076V1074.95C1977.7 1074.95 1978.52 1074.7 1978.99 1074.2C1979.49 1073.7 1979.74 1072.75 1979.74 1071.35V1042.9C1979.74 1041.4 1979.5 1040.3 1979.04 1039.6C1978.6 1038.87 1977.77 1038.5 1976.54 1038.5V1037.45C1977.6 1037.55 1978.64 1037.6 1979.64 1037.6C1981 1037.6 1982.3 1037.55 1983.54 1037.45C1984.77 1037.32 1985.9 1037.13 1986.94 1036.9Z" fill="white"/>
<path d="M2149.59 701.45C2150.99 701.45 2152.21 701.633 2153.24 702C2154.31 702.333 2155.08 702.667 2155.54 703C2156.68 703.767 2157.38 703.267 2157.64 701.5H2158.69C2158.63 702.433 2158.58 703.583 2158.54 704.95C2158.51 706.283 2158.49 708.067 2158.49 710.3H2157.44C2157.28 709.067 2156.96 707.85 2156.49 706.65C2156.03 705.45 2155.34 704.467 2154.44 703.7C2153.58 702.933 2152.44 702.55 2151.04 702.55C2150.08 702.55 2149.26 702.833 2148.59 703.4C2147.93 703.933 2147.59 704.717 2147.59 705.75C2147.59 706.75 2147.89 707.633 2148.49 708.4C2149.09 709.133 2149.86 709.85 2150.79 710.55C2151.76 711.217 2152.76 711.933 2153.79 712.7C2154.89 713.533 2155.89 714.367 2156.79 715.2C2157.69 716 2158.41 716.883 2158.94 717.85C2159.48 718.817 2159.74 719.967 2159.74 721.3C2159.74 722.8 2159.31 724.117 2158.44 725.25C2157.58 726.35 2156.43 727.2 2154.99 727.8C2153.59 728.4 2152.03 728.7 2150.29 728.7C2149.29 728.7 2148.39 728.6 2147.59 728.4C2146.83 728.2 2146.16 727.95 2145.59 727.65C2145.16 727.45 2144.74 727.267 2144.34 727.1C2143.98 726.9 2143.63 726.733 2143.29 726.6C2142.96 726.5 2142.66 726.617 2142.39 726.95C2142.16 727.283 2141.98 727.75 2141.84 728.35H2140.79C2140.86 727.283 2140.91 725.983 2140.94 724.45C2140.98 722.917 2140.99 720.883 2140.99 718.35H2142.04C2142.24 720.15 2142.61 721.75 2143.14 723.15C2143.68 724.517 2144.39 725.6 2145.29 726.4C2146.23 727.167 2147.39 727.55 2148.79 727.55C2149.36 727.55 2149.91 727.433 2150.44 727.2C2150.98 726.967 2151.41 726.583 2151.74 726.05C2152.11 725.517 2152.29 724.833 2152.29 724C2152.29 722.533 2151.81 721.317 2150.84 720.35C2149.91 719.383 2148.71 718.333 2147.24 717.2C2146.18 716.333 2145.16 715.483 2144.19 714.65C2143.26 713.783 2142.49 712.85 2141.89 711.85C2141.29 710.817 2140.99 709.65 2140.99 708.35C2140.99 706.85 2141.39 705.583 2142.19 704.55C2142.99 703.517 2144.04 702.75 2145.34 702.25C2146.68 701.717 2148.09 701.45 2149.59 701.45ZM2172.94 688.9V706.1C2173.77 704.367 2174.89 703.167 2176.29 702.5C2177.72 701.8 2179.32 701.45 2181.09 701.45C2182.52 701.45 2183.67 701.633 2184.54 702C2185.4 702.333 2186.09 702.8 2186.59 703.4C2187.15 704.033 2187.55 704.85 2187.79 705.85C2188.05 706.85 2188.19 708.2 2188.19 709.9V723.35C2188.19 724.75 2188.42 725.7 2188.89 726.2C2189.39 726.7 2190.22 726.95 2191.39 726.95V728C2190.75 727.967 2189.79 727.933 2188.49 727.9C2187.22 727.833 2185.99 727.8 2184.79 727.8C2183.49 727.8 2182.22 727.833 2180.99 727.9C2179.79 727.933 2178.89 727.967 2178.29 728V726.95C2179.29 726.95 2179.99 726.7 2180.39 726.2C2180.79 725.7 2180.99 724.75 2180.99 723.35V707.8C2180.99 706.967 2180.9 706.25 2180.74 705.65C2180.57 705.017 2180.25 704.533 2179.79 704.2C2179.35 703.833 2178.72 703.65 2177.89 703.65C2176.99 703.65 2176.15 703.9 2175.39 704.4C2174.65 704.867 2174.05 705.533 2173.59 706.4C2173.15 707.267 2172.94 708.267 2172.94 709.4V723.35C2172.94 724.75 2173.14 725.7 2173.54 726.2C2173.94 726.7 2174.64 726.95 2175.64 726.95V728C2175.04 727.967 2174.15 727.933 2172.99 727.9C2171.82 727.833 2170.64 727.8 2169.44 727.8C2168.14 727.8 2166.82 727.833 2165.49 727.9C2164.19 727.933 2163.2 727.967 2162.54 728V726.95C2163.7 726.95 2164.52 726.7 2164.99 726.2C2165.49 725.7 2165.74 724.75 2165.74 723.35V694.9C2165.74 693.4 2165.5 692.3 2165.04 691.6C2164.6 690.867 2163.77 690.5 2162.54 690.5V689.45C2163.6 689.55 2164.64 689.6 2165.64 689.6C2167 689.6 2168.3 689.55 2169.54 689.45C2170.77 689.317 2171.9 689.133 2172.94 688.9Z" fill="white"/>
<path d="M1724.59 114.45C1725.99 114.45 1727.21 114.633 1728.24 115C1729.31 115.333 1730.08 115.667 1730.54 116C1731.68 116.767 1732.38 116.267 1732.64 114.5H1733.69C1733.63 115.433 1733.58 116.583 1733.54 117.95C1733.51 119.283 1733.49 121.067 1733.49 123.3H1732.44C1732.28 122.067 1731.96 120.85 1731.49 119.65C1731.03 118.45 1730.34 117.467 1729.44 116.7C1728.58 115.933 1727.44 115.55 1726.04 115.55C1725.08 115.55 1724.26 115.833 1723.59 116.4C1722.93 116.933 1722.59 117.717 1722.59 118.75C1722.59 119.75 1722.89 120.633 1723.49 121.4C1724.09 122.133 1724.86 122.85 1725.79 123.55C1726.76 124.217 1727.76 124.933 1728.79 125.7C1729.89 126.533 1730.89 127.367 1731.79 128.2C1732.69 129 1733.41 129.883 1733.94 130.85C1734.48 131.817 1734.74 132.967 1734.74 134.3C1734.74 135.8 1734.31 137.117 1733.44 138.25C1732.58 139.35 1731.43 140.2 1729.99 140.8C1728.59 141.4 1727.03 141.7 1725.29 141.7C1724.29 141.7 1723.39 141.6 1722.59 141.4C1721.83 141.2 1721.16 140.95 1720.59 140.65C1720.16 140.45 1719.74 140.267 1719.34 140.1C1718.98 139.9 1718.63 139.733 1718.29 139.6C1717.96 139.5 1717.66 139.617 1717.39 139.95C1717.16 140.283 1716.98 140.75 1716.84 141.35H1715.79C1715.86 140.283 1715.91 138.983 1715.94 137.45C1715.98 135.917 1715.99 133.883 1715.99 131.35H1717.04C1717.24 133.15 1717.61 134.75 1718.14 136.15C1718.68 137.517 1719.39 138.6 1720.29 139.4C1721.23 140.167 1722.39 140.55 1723.79 140.55C1724.36 140.55 1724.91 140.433 1725.44 140.2C1725.98 139.967 1726.41 139.583 1726.74 139.05C1727.11 138.517 1727.29 137.833 1727.29 137C1727.29 135.533 1726.81 134.317 1725.84 133.35C1724.91 132.383 1723.71 131.333 1722.24 130.2C1721.18 129.333 1720.16 128.483 1719.19 127.65C1718.26 126.783 1717.49 125.85 1716.89 124.85C1716.29 123.817 1715.99 122.65 1715.99 121.35C1715.99 119.85 1716.39 118.583 1717.19 117.55C1717.99 116.517 1719.04 115.75 1720.34 115.25C1721.68 114.717 1723.09 114.45 1724.59 114.45Z" fill="white"/>
<path d="M88.8922 1156.6V1187.1C88.8922 1188.67 89.2922 1189.7 90.0922 1190.2C90.8922 1190.73 91.9922 1191 93.3922 1191V1192.05C92.5255 1192.02 91.3255 1191.97 89.7922 1191.9C88.2922 1191.87 86.6922 1191.85 84.9922 1191.85C83.7589 1191.85 82.5422 1191.87 81.3422 1191.9C80.1755 1191.97 79.2922 1192.02 78.6922 1192.05V1191C79.7922 1191 80.5589 1190.77 80.9922 1190.3C81.4589 1189.83 81.6922 1188.93 81.6922 1187.6V1162.6C81.6922 1161.1 81.4589 1160 80.9922 1159.3C80.5255 1158.57 79.6922 1158.2 78.4922 1158.2V1157.15C79.5589 1157.25 80.5922 1157.3 81.5922 1157.3C82.9589 1157.3 84.2589 1157.25 85.4922 1157.15C86.7255 1157.02 87.8589 1156.83 88.8922 1156.6ZM96.6422 1156.45C98.3422 1156.45 99.8589 1156.92 101.192 1157.85C102.526 1158.75 103.592 1160.13 104.392 1162C105.192 1163.83 105.592 1166.13 105.592 1168.9C105.592 1171.33 105.309 1173.47 104.742 1175.3C104.209 1177.13 103.426 1178.68 102.392 1179.95C101.392 1181.18 100.176 1182.12 98.7422 1182.75C97.3422 1183.38 95.7589 1183.7 93.9922 1183.7C92.6922 1183.7 91.5089 1183.47 90.4422 1183C89.3755 1182.57 88.5589 1181.93 87.9922 1181.1L88.4922 1180.45C88.8255 1181.05 89.2922 1181.52 89.8922 1181.85C90.5255 1182.18 91.2422 1182.35 92.0422 1182.35C93.5422 1182.35 94.7255 1181.85 95.5922 1180.85C96.4589 1179.82 97.0755 1178.38 97.4422 1176.55C97.8422 1174.68 98.0422 1172.47 98.0422 1169.9C98.0422 1167.03 97.8589 1164.78 97.4922 1163.15C97.1255 1161.52 96.6255 1160.35 95.9922 1159.65C95.3589 1158.95 94.5922 1158.6 93.6922 1158.6C92.4922 1158.6 91.3922 1159.07 90.3922 1160C89.4255 1160.93 88.8755 1162.27 88.7422 1164L88.4922 1162.25C89.0922 1160.35 90.1089 1158.92 91.5422 1157.95C93.0089 1156.95 94.7089 1156.45 96.6422 1156.45ZM118.823 1143.9V1161.1C119.656 1159.37 120.773 1158.17 122.173 1157.5C123.606 1156.8 125.206 1156.45 126.973 1156.45C128.406 1156.45 129.556 1156.63 130.423 1157C131.289 1157.33 131.973 1157.8 132.473 1158.4C133.039 1159.03 133.439 1159.85 133.673 1160.85C133.939 1161.85 134.073 1163.2 134.073 1164.9V1178.35C134.073 1179.75 134.306 1180.7 134.773 1181.2C135.273 1181.7 136.106 1181.95 137.273 1181.95V1183C136.639 1182.97 135.673 1182.93 134.373 1182.9C133.106 1182.83 131.873 1182.8 130.673 1182.8C129.373 1182.8 128.106 1182.83 126.873 1182.9C125.673 1182.93 124.773 1182.97 124.173 1183V1181.95C125.173 1181.95 125.873 1181.7 126.273 1181.2C126.673 1180.7 126.873 1179.75 126.873 1178.35V1162.8C126.873 1161.97 126.789 1161.25 126.623 1160.65C126.456 1160.02 126.139 1159.53 125.673 1159.2C125.239 1158.83 124.606 1158.65 123.773 1158.65C122.873 1158.65 122.039 1158.9 121.273 1159.4C120.539 1159.87 119.939 1160.53 119.473 1161.4C119.039 1162.27 118.823 1163.27 118.823 1164.4V1178.35C118.823 1179.75 119.023 1180.7 119.423 1181.2C119.823 1181.7 120.523 1181.95 121.523 1181.95V1183C120.923 1182.97 120.039 1182.93 118.873 1182.9C117.706 1182.83 116.523 1182.8 115.323 1182.8C114.023 1182.8 112.706 1182.83 111.373 1182.9C110.073 1182.93 109.089 1182.97 108.423 1183V1181.95C109.589 1181.95 110.406 1181.7 110.873 1181.2C111.373 1180.7 111.623 1179.75 111.623 1178.35V1149.9C111.623 1148.4 111.389 1147.3 110.923 1146.6C110.489 1145.87 109.656 1145.5 108.423 1145.5V1144.45C109.489 1144.55 110.523 1144.6 111.523 1144.6C112.889 1144.6 114.189 1144.55 115.423 1144.45C116.656 1144.32 117.789 1144.13 118.823 1143.9Z" fill="white"/>
<g clip-path="url(#clip6_200_72)">
<path d="M2482.99 1338.5V1338C2482.72 1338 2482.49 1338.22 2482.49 1338.5H2482.99ZM2482.99 1342.5H2482.49C2482.49 1342.7 2482.61 1342.88 2482.8 1342.96C2482.99 1343.04 2483.2 1343 2483.35 1342.85L2482.99 1342.5ZM2486.99 1338.5L2487.35 1338.85C2487.49 1338.71 2487.53 1338.5 2487.45 1338.31C2487.38 1338.12 2487.19 1338 2486.99 1338V1338.5ZM2484.64 1340.85L2496.64 1352.85L2497.35 1352.15L2485.35 1340.15L2484.64 1340.85ZM2482.49 1338.5V1342.5H2483.49V1338.5H2482.49ZM2483.35 1342.85L2487.35 1338.85L2486.64 1338.15L2482.64 1342.15L2483.35 1342.85ZM2486.99 1338H2482.99V1339H2486.99V1338Z" fill="black"/>
</g>
<g clip-path="url(#clip7_200_72)">
<path d="M2142.78 1157.23L2145.31 1154.7L2144.6 1154L2142.07 1156.53L2141.38 1155.84C2141.07 1155.52 2140.55 1155.52 2140.24 1155.84L2138.23 1157.84C2138.17 1157.91 2138.14 1158.01 2138.16 1158.1L2138.25 1158.46L2136.27 1160.44L2135.91 1160.35C2135.82 1160.33 2135.72 1160.35 2135.65 1160.42L2133.52 1162.55C2133.21 1162.87 2133.21 1163.38 2133.52 1163.7L2134.29 1164.47L2131.57 1167.19L2132.28 1167.89L2135 1165.17L2135.77 1165.94C2136.08 1166.26 2136.6 1166.26 2136.91 1165.94L2139.05 1163.81C2139.09 1163.76 2139.12 1163.7 2139.12 1163.63L2139.15 1163.19L2141.08 1161.26L2141.39 1161.31C2141.48 1161.32 2141.56 1161.29 2141.62 1161.23L2143.63 1159.23C2143.94 1158.91 2143.94 1158.4 2143.63 1158.08L2142.78 1157.23ZM2136.53 1165.56C2136.43 1165.67 2136.25 1165.67 2136.15 1165.56L2133.9 1163.32C2133.8 1163.21 2133.8 1163.04 2133.9 1162.93L2134.65 1162.19L2137.28 1164.82L2136.53 1165.56ZM2138.59 1163.5L2137.94 1164.15L2135.32 1161.52L2135.93 1160.91L2136.29 1161C2136.34 1161.01 2136.4 1161.01 2136.45 1160.99L2138.61 1163.14L2138.59 1163.5ZM2139.19 1162.39L2137.14 1160.34L2138.05 1159.42L2140.11 1161.47L2139.19 1162.39ZM2141.34 1160.76L2141.02 1160.71C2140.94 1160.7 2140.85 1160.72 2140.79 1160.78L2140.78 1160.8L2138.72 1158.75L2138.74 1158.73C2138.81 1158.67 2138.84 1158.57 2138.81 1158.48L2138.72 1158.12L2139.22 1157.62L2141.85 1160.25L2141.34 1160.76ZM2143.25 1158.85L2142.51 1159.58L2139.89 1156.95L2140.62 1156.22C2140.72 1156.11 2140.9 1156.12 2141 1156.22L2143.25 1158.47C2143.35 1158.57 2143.35 1158.74 2143.25 1158.85Z" fill="#D6D5A8"/>
</g>
<rect x="2057.49" y="208" width="336" height="128" fill="#D6D5A8"/>
<rect x="1821.18" y="875.173" width="336" height="128" transform="rotate(90.9727 1821.18 875.173)" fill="#D6D5A8"/>
<defs>
<clipPath id="clip0_200_72">
<rect width="489.994" height="489.994" fill="white" transform="translate(149.492 916)"/>
</clipPath>
<clipPath id="clip1_200_72">
<rect width="194" height="212" fill="white" transform="translate(0 763.188) rotate(-0.483464)"/>
</clipPath>
<clipPath id="clip2_200_72">
<rect width="366.929" height="373.777" fill="white" transform="translate(1377.27 879.093) rotate(90.6274)"/>
</clipPath>
<clipPath id="clip3_200_72">
<rect width="190" height="206" fill="white" transform="translate(2495.49 313)"/>
</clipPath>
<clipPath id="clip4_200_72">
<rect width="194" height="212" fill="white" transform="translate(1432.29 832.999) rotate(179.784)"/>
</clipPath>
<clipPath id="clip5_200_72">
<rect width="194" height="212" fill="white" transform="translate(2077.29 833.999) rotate(179.784)"/>
</clipPath>
<clipPath id="clip6_200_72">
<rect width="15" height="15" fill="white" transform="translate(2482.49 1338)"/>
</clipPath>
<clipPath id="clip7_200_72">
<rect width="13.894" height="13.894" fill="white" transform="translate(2131.49 1154)"/>
</clipPath>
</defs>
</svg>
