<svg width="2134" height="1748" viewBox="0 0 2134 1748" fill="none" xmlns="http://www.w3.org/2000/svg">
<g clip-path="url(#clip0_198_2)">
<path d="M440.426 1087.43H340.896C336.668 1087.43 333.239 1090.86 333.239 1095.08C333.239 1099.31 336.667 1102.74 340.896 1102.74H440.426C444.654 1102.74 448.082 1099.31 448.082 1095.08C448.083 1090.86 444.654 1087.43 440.426 1087.43Z" fill="#D6D5A8"/>
<path d="M440.426 1118.55H340.896C336.668 1118.55 333.239 1121.98 333.239 1126.21C333.239 1130.44 336.667 1133.87 340.896 1133.87H440.426C444.654 1133.87 448.082 1130.44 448.082 1126.21C448.082 1121.98 444.654 1118.55 440.426 1118.55Z" fill="#D6D5A8"/>
<path d="M413.944 1149.68H367.254C363.026 1149.68 359.597 1153.11 359.597 1157.34C359.597 1161.57 363.025 1164.99 367.254 1164.99H413.944C418.172 1164.99 421.601 1161.57 421.601 1157.34C421.601 1153.11 418.172 1149.68 413.944 1149.68Z" fill="#D6D5A8"/>
<path d="M394.49 675C310.888 675 242.873 743.015 242.873 826.617C242.873 857.385 252.111 886.771 269.588 911.598C285.499 934.2 307.432 952.01 333.24 963.356V1001.83H325.584C321.356 1001.83 317.927 1005.26 317.927 1009.49V1063.96C317.927 1068.19 321.355 1071.61 325.584 1071.61H455.738C459.966 1071.61 463.395 1068.19 463.395 1063.96V1009.49C463.395 1005.26 459.967 1001.83 455.738 1001.83H448.082V963.679C475.951 953.284 499.654 936.096 516.874 913.719C535.997 888.869 546.106 858.75 546.106 826.618C546.106 743.015 478.091 675 394.49 675ZM448.082 1056.3H333.241V1017.14H448.082V1056.3ZM504.739 904.379C488.312 925.725 465.229 941.855 437.987 951.021C434.788 952.097 432.777 955.08 432.777 958.277H432.77V1001.83H417.459V866.404C417.459 862.176 414.031 858.747 409.802 858.747C405.574 858.747 402.145 862.175 402.145 866.404V1001.83H379.177V866.404C379.177 862.176 375.749 858.747 371.521 858.747C367.293 858.747 363.864 862.175 363.864 866.404V1001.83H348.553V958.278H348.549C348.548 955.244 346.736 952.372 343.748 951.173C318.606 941.084 297.291 924.351 282.109 902.784C266.458 880.55 258.186 854.213 258.186 826.618C258.186 751.459 319.331 690.315 394.489 690.315C469.647 690.315 530.793 751.458 530.793 826.617C530.793 855.341 521.785 882.23 504.739 904.379Z" fill="#D6D5A8"/>
<path d="M403.652 720.938C403.652 716.71 400.224 713.281 395.995 713.281C358.277 713.281 322.905 733.47 303.681 765.968C301.528 769.607 302.733 774.303 306.372 776.455C307.595 777.179 308.937 777.524 310.263 777.524C312.881 777.524 315.431 776.181 316.859 773.764C333.341 745.902 363.665 728.594 395.995 728.594C400.224 728.594 403.652 725.166 403.652 720.938Z" fill="#D6D5A8"/>
<path d="M300.889 790.045C296.781 789.077 292.65 791.621 291.678 795.736C289.775 803.793 288.809 812.114 288.809 820.467C288.809 824.695 292.237 828.124 296.466 828.124C300.694 828.124 304.123 824.696 304.123 820.467C304.123 813.298 304.949 806.163 306.581 799.256C307.553 795.142 305.005 791.017 300.889 790.045Z" fill="#D6D5A8"/>
<path d="M424.147 822.709C422.711 821.273 420.764 820.466 418.734 820.466C416.704 820.466 414.756 821.273 413.321 822.709L404.699 831.331L396.077 822.709C394.641 821.273 392.694 820.466 390.664 820.466C388.634 820.466 386.686 821.273 385.251 822.709L376.628 831.331L368.005 822.709C366.569 821.273 364.622 820.466 362.592 820.466C360.562 820.466 358.614 821.273 357.179 822.709L343.143 836.746C340.153 839.736 340.153 844.584 343.143 847.573C346.134 850.564 350.981 850.564 353.97 847.573L362.592 838.95L371.214 847.573C372.65 849.009 374.597 849.816 376.627 849.816C378.657 849.816 380.605 849.009 382.04 847.573L390.664 838.95L399.286 847.573C400.722 849.009 402.669 849.816 404.699 849.816C406.729 849.816 408.677 849.009 410.112 847.573L418.734 838.95L427.358 847.573C428.852 849.068 430.812 849.816 432.771 849.816C434.73 849.816 436.69 849.068 438.184 847.573C441.174 844.583 441.174 839.736 438.184 836.746L424.147 822.709Z" fill="#D6D5A8"/>
</g>
<g clip-path="url(#clip1_198_2)">
<path d="M98.785 733.362C106.054 733.301 111.89 726.813 111.823 718.87L110.786 595.866C110.674 582.631 117.409 579.626 125.833 589.152L157.037 624.455C159.765 627.544 163.415 629.08 167.051 629.05C170.447 629.021 173.852 627.621 176.483 624.843C181.953 619.077 182.092 609.565 176.808 603.583L108.182 525.959C105.591 523.018 102.015 521.361 98.2858 521.359C94.5529 521.4 90.9955 523.002 88.4056 525.939L18.744 604.745C13.4642 610.705 13.6235 620.224 19.0812 625.993C24.5478 631.767 33.2588 631.602 38.5299 625.642L69.0522 591.118C77.4606 581.603 84.3691 584.622 84.4808 597.857L85.5038 719.092C85.5709 727.035 91.5164 733.423 98.785 733.362Z" fill="#D6D5A8"/>
</g>
<rect x="373.492" y="6" width="35" height="680" rx="17.5" fill="#D6D5A8"/>
<rect x="1171.49" width="35" height="686" rx="17.5" fill="#D6D5A8"/>
<rect x="1171.49" y="948" width="35" height="795" rx="17.5" fill="#D6D5A8"/>
<rect x="1953.49" y="320" width="35" height="1424" rx="17.5" fill="#D6D5A8"/>
<rect width="35" height="578" rx="17.5" transform="matrix(1 0 0 -1 373.492 1743)" fill="#D6D5A8"/>
<rect width="29.2099" height="814.999" rx="14.6049" transform="matrix(-0.00350281 0.999994 -0.999997 -0.00243972 1188.76 1.9884)" fill="#D6D5A8"/>
<rect width="29.2099" height="814.999" rx="14.6049" transform="matrix(-0.00350281 0.999994 -0.999997 -0.00243972 2003.59 5.98828)" fill="#D6D5A8"/>
<rect width="29.2099" height="814.935" rx="14.6049" transform="matrix(-0.00350281 0.999994 -0.999997 -0.00243972 1986.53 1713.99)" fill="#D6D5A8"/>
<rect width="24.8242" height="814.998" rx="12.4121" transform="matrix(-0.00412164 -0.999991 -0.999998 0.0020734 1188.76 1746.31)" fill="#D6D5A8"/>
<g clip-path="url(#clip2_198_2)">
<path d="M1196.4 1003.06L1196.86 961.059C1271.67 956.802 1331.58 896.137 1332.4 821.487C1333.22 746.838 1274.65 684.875 1199.95 678.981L1200.42 636.156L1180.35 635.937L1179.88 678.761C1105.08 683.018 1045.17 743.683 1044.35 818.333C1043.53 892.982 1102.1 954.945 1176.8 960.839L1176.34 1002.84L1196.4 1003.06ZM1064.42 818.553C1065.11 754.77 1115.94 702.846 1179.67 698.513L1179.01 759.06L1105.34 758.253L1169.37 859.927L1105.16 859.224L1104.94 878.924L1177.68 879.721L1177.01 941.088C1113.39 935.359 1063.72 882.335 1064.42 818.553ZM1236.29 779.389L1188.14 852.272L1141.59 778.352L1236.29 779.389ZM1197.75 879.94L1270.5 880.737L1270.71 861.037L1206.73 860.337L1272.97 760.089L1199.07 759.28L1199.74 698.733C1263.36 704.461 1313.03 757.485 1312.33 821.268C1311.63 885.05 1260.81 936.974 1197.08 941.307L1197.75 879.94Z" fill="#D6D5A8"/>
</g>
<g clip-path="url(#clip3_198_2)">
<path d="M1980.31 274.896C1979.74 276.793 1978.12 278 1976.37 278C1975.95 278 1975.52 277.929 1975.1 277.781C1971.44 276.497 1969.54 276.498 1965.89 277.781C1963.71 278.544 1961.38 277.252 1960.68 274.896C1959.98 272.54 1961.17 270.012 1963.34 269.25C1968.62 267.397 1972.36 267.397 1977.64 269.25C1979.82 270.011 1981.01 272.539 1980.31 274.896ZM2038.26 219.133C2034.26 225.414 2027.32 229.164 2019.68 229.164C2013.03 229.164 2005.6 225.477 1997.72 221.574C1988.79 217.143 1979.55 212.561 1970.49 212.5C1961.44 212.561 1952.2 217.143 1943.26 221.574C1935.39 225.477 1927.95 229.164 1921.3 229.164C1913.67 229.164 1906.72 225.414 1902.72 219.133C1895.13 207.209 1900.98 193.734 1906.14 181.845C1906.14 181.845 1932.8 122.716 1934.21 119.518C1945.13 94.6762 1952.02 80.4802 1957.08 76.6078C1961.02 73.5932 1965.66 72 1970.49 72C1975.33 72 1979.97 73.5932 1983.91 76.6073C1988.97 80.4802 1995.85 94.6772 2006.78 119.521C2008.18 122.718 2034.85 181.848 2034.85 181.848C2040 193.736 2045.85 207.21 2038.26 219.133ZM2027.36 185.665C2027.36 185.665 2009.91 146.662 2002.89 131.412C2001.97 129.414 2000.74 126.618 1999.31 123.381C1994.55 112.551 1983.39 87.1899 1979.14 83.9342C1976.6 81.9937 1973.61 80.9675 1970.49 80.9675C1967.37 80.9675 1964.38 81.9937 1961.85 83.9352C1957.59 87.1899 1946.44 112.549 1941.67 123.378C1940.25 126.616 1913.62 185.663 1913.62 185.663C1909 196.306 1904.64 206.359 1909.53 214.039C1911.99 217.894 1916.39 220.196 1921.3 220.196C1926.15 220.196 1932.79 216.904 1939.82 213.418C1949.11 208.815 1959.63 203.596 1970.47 203.532C1970.48 203.532 1970.48 203.532 1970.49 203.532C1970.5 203.532 1970.51 203.532 1970.51 203.532C1981.35 203.596 1991.88 208.815 2001.16 213.418C2008.19 216.904 2014.83 220.196 2019.68 220.196C2024.6 220.196 2029 217.894 2031.45 214.039C2036.34 206.361 2031.98 196.308 2027.36 185.665ZM2003.27 252.379C2001.93 256.022 1999.3 258.911 1996.05 260.305C1994.6 260.929 1993.09 261.24 1991.58 261.24C1989.83 261.24 1988.09 260.824 1986.45 259.995C1973.03 253.193 1967.96 253.193 1954.54 259.992C1951.47 261.539 1948.06 261.65 1944.93 260.304C1941.69 258.911 1939.06 256.022 1937.71 252.378C1935.04 245.144 1937.98 236.677 1944.27 233.505C1964.61 223.197 1976.37 223.195 1996.72 233.505C2003 236.679 2005.94 245.145 2003.27 252.379ZM1993.23 241.635C1993.22 241.634 1993.22 241.633 1993.22 241.632C1975.17 232.482 1965.82 232.482 1947.76 241.632C1945.43 242.812 1944.34 246.207 1945.39 249.048C1945.9 250.435 1946.82 251.472 1947.98 251.968C1948.68 252.271 1949.79 252.5 1951.04 251.866C1958.86 247.906 1964.67 245.926 1970.49 245.926C1976.31 245.926 1982.13 247.907 1989.95 251.869C1991.2 252.501 1992.3 252.271 1993.01 251.968C1994.16 251.472 1995.08 250.435 1995.59 249.049C1996.64 246.206 1995.56 242.812 1993.23 241.635Z" fill="#D6D5A8"/>
</g>
<g clip-path="url(#clip4_198_2)">
<path d="M1334.49 380.366C1327.22 380.394 1321.36 386.854 1321.39 394.797L1321.85 517.805C1321.9 531.04 1315.15 534.014 1306.77 524.448L1275.73 489C1273.02 485.899 1269.38 484.346 1265.74 484.359C1262.34 484.372 1258.93 485.756 1256.29 488.522C1250.79 494.262 1250.61 503.774 1255.86 509.78L1324.13 587.723C1326.71 590.676 1330.27 592.35 1334 592.37C1337.74 592.346 1341.3 590.76 1343.9 587.836L1413.93 509.355C1419.24 503.42 1419.12 493.9 1413.69 488.105C1408.25 482.306 1399.54 482.43 1394.24 488.366L1363.56 522.748C1355.11 532.224 1348.21 529.172 1348.16 515.936L1347.71 394.698C1347.68 386.755 1341.76 380.339 1334.49 380.366Z" fill="#D6D5A8"/>
</g>
<path d="M1414.79 652.2V654.2C1412.66 654.267 1411.03 654.533 1409.89 655C1408.83 655.4 1408.13 656.2 1407.79 657.4C1407.46 658.533 1407.29 660.333 1407.29 662.8V712.4C1407.29 714.8 1407.46 716.6 1407.79 717.8C1408.19 719 1408.93 719.8 1409.99 720.2C1411.06 720.6 1412.66 720.867 1414.79 721V723C1412.99 722.867 1410.73 722.8 1407.99 722.8C1405.26 722.733 1402.49 722.7 1399.69 722.7C1396.43 722.7 1393.39 722.733 1390.59 722.8C1387.86 722.8 1385.63 722.867 1383.89 723V721C1386.03 720.867 1387.63 720.6 1388.69 720.2C1389.76 719.8 1390.46 719 1390.79 717.8C1391.19 716.6 1391.39 714.8 1391.39 712.4V662.8C1391.39 660.333 1391.19 658.533 1390.79 657.4C1390.46 656.2 1389.73 655.4 1388.59 655C1387.53 654.533 1385.96 654.267 1383.89 654.2V652.2C1385.63 652.267 1387.86 652.333 1390.59 652.4C1393.39 652.467 1396.43 652.5 1399.69 652.5C1402.49 652.5 1405.26 652.467 1407.99 652.4C1410.73 652.333 1412.99 652.267 1414.79 652.2Z" fill="white"/>
<path d="M2133.29 690.2V692.2C2131.83 692.733 2130.26 693.9 2128.59 695.7C2126.99 697.5 2125.49 700.3 2124.09 704.1L2102.99 761.2C2102.46 761.133 2101.89 761.1 2101.29 761.1C2100.69 761.1 2100.09 761.1 2099.49 761.1C2098.96 761.1 2098.39 761.1 2097.79 761.1C2097.19 761.1 2096.63 761.133 2096.09 761.2L2070.59 698.6C2069.66 696.2 2068.63 694.567 2067.49 693.7C2066.36 692.767 2065.29 692.267 2064.29 692.2V690.2C2066.29 690.267 2068.63 690.333 2071.29 690.4C2074.03 690.467 2076.76 690.5 2079.49 690.5C2082.56 690.5 2085.43 690.467 2088.09 690.4C2090.83 690.333 2093.03 690.267 2094.69 690.2V692.2C2092.56 692.267 2090.89 692.533 2089.69 693C2088.49 693.4 2087.83 694.2 2087.69 695.4C2087.56 696.533 2087.96 698.267 2088.89 700.6L2107.09 746.9L2104.99 749.4L2118.79 712.2C2120.59 707.2 2121.53 703.267 2121.59 700.4C2121.66 697.533 2120.96 695.467 2119.49 694.2C2118.03 692.933 2115.93 692.267 2113.19 692.2V690.2C2115.46 690.267 2117.59 690.333 2119.59 690.4C2121.59 690.467 2123.63 690.5 2125.69 690.5C2127.16 690.5 2128.53 690.467 2129.79 690.4C2131.13 690.333 2132.29 690.267 2133.29 690.2Z" fill="white"/>
<path d="M71.7922 846.2V848.2C69.6589 848.267 68.0255 848.533 66.8922 849C65.8255 849.4 65.1255 850.2 64.7922 851.4C64.4589 852.533 64.2922 854.333 64.2922 856.8V906.4C64.2922 908.8 64.4589 910.6 64.7922 911.8C65.1922 913 65.9255 913.8 66.9922 914.2C68.0589 914.6 69.6589 914.867 71.7922 915V917C69.9922 916.867 67.7255 916.8 64.9922 916.8C62.2589 916.733 59.4922 916.7 56.6922 916.7C53.4255 916.7 50.3922 916.733 47.5922 916.8C44.8589 916.8 42.6255 916.867 40.8922 917V915C43.0255 914.867 44.6255 914.6 45.6922 914.2C46.7589 913.8 47.4589 913 47.7922 911.8C48.1922 910.6 48.3922 908.8 48.3922 906.4V856.8C48.3922 854.333 48.1922 852.533 47.7922 851.4C47.4589 850.2 46.7255 849.4 45.5922 849C44.5255 848.533 42.9589 848.267 40.8922 848.2V846.2C42.6255 846.267 44.8589 846.333 47.5922 846.4C50.3922 846.467 53.4255 846.5 56.6922 846.5C59.4922 846.5 62.2589 846.467 64.9922 846.4C67.7255 846.333 69.9922 846.267 71.7922 846.2Z" fill="white"/>
<path d="M1458.29 705.85V739.5C1458.29 741 1458.53 742.117 1458.99 742.85C1459.46 743.55 1460.29 743.9 1461.49 743.9V744.95C1460.46 744.85 1459.43 744.8 1458.39 744.8C1456.99 744.8 1455.68 744.85 1454.44 744.95C1453.24 745.05 1452.13 745.233 1451.09 745.5V711.85C1451.09 710.35 1450.86 709.25 1450.39 708.55C1449.96 707.817 1449.13 707.45 1447.89 707.45V706.4C1448.96 706.5 1449.99 706.55 1450.99 706.55C1452.36 706.55 1453.66 706.5 1454.89 706.4C1456.13 706.267 1457.26 706.083 1458.29 705.85ZM1445.54 718.45C1447.01 718.45 1448.29 718.7 1449.39 719.2C1450.53 719.667 1451.41 720.467 1452.04 721.6L1451.44 722.15C1451.01 721.35 1450.43 720.783 1449.69 720.45C1448.99 720.083 1448.24 719.9 1447.44 719.9C1445.74 719.9 1444.39 720.9 1443.39 722.9C1442.39 724.867 1441.91 727.917 1441.94 732.05C1441.94 734.883 1442.13 737.15 1442.49 738.85C1442.89 740.517 1443.44 741.717 1444.14 742.45C1444.88 743.183 1445.71 743.55 1446.64 743.55C1447.78 743.55 1448.79 743.1 1449.69 742.2C1450.59 741.3 1451.08 740.083 1451.14 738.55L1451.39 740.3C1450.89 742.067 1450.08 743.417 1448.94 744.35C1447.84 745.25 1446.39 745.7 1444.59 745.7C1442.63 745.7 1440.86 745.217 1439.29 744.25C1437.76 743.283 1436.56 741.8 1435.69 739.8C1434.83 737.767 1434.39 735.15 1434.39 731.95C1434.39 728.917 1434.88 726.417 1435.84 724.45C1436.81 722.45 1438.13 720.95 1439.79 719.95C1441.49 718.95 1443.41 718.45 1445.54 718.45Z" fill="white"/>
<path d="M88.8922 915.6V946.1C88.8922 947.667 89.2922 948.7 90.0922 949.2C90.8922 949.733 91.9922 950 93.3922 950V951.05C92.5255 951.017 91.3255 950.967 89.7922 950.9C88.2922 950.867 86.6922 950.85 84.9922 950.85C83.7589 950.85 82.5422 950.867 81.3422 950.9C80.1755 950.967 79.2922 951.017 78.6922 951.05V950C79.7922 950 80.5589 949.767 80.9922 949.3C81.4589 948.833 81.6922 947.933 81.6922 946.6V921.6C81.6922 920.1 81.4589 919 80.9922 918.3C80.5255 917.567 79.6922 917.2 78.4922 917.2V916.15C79.5589 916.25 80.5922 916.3 81.5922 916.3C82.9589 916.3 84.2589 916.25 85.4922 916.15C86.7255 916.017 87.8589 915.833 88.8922 915.6ZM96.6422 915.45C98.3422 915.45 99.8589 915.917 101.192 916.85C102.526 917.75 103.592 919.133 104.392 921C105.192 922.833 105.592 925.133 105.592 927.9C105.592 930.333 105.309 932.467 104.742 934.3C104.209 936.133 103.426 937.683 102.392 938.95C101.392 940.183 100.176 941.117 98.7422 941.75C97.3422 942.383 95.7589 942.7 93.9922 942.7C92.6922 942.7 91.5089 942.467 90.4422 942C89.3755 941.567 88.5589 940.933 87.9922 940.1L88.4922 939.45C88.8255 940.05 89.2922 940.517 89.8922 940.85C90.5255 941.183 91.2422 941.35 92.0422 941.35C93.5422 941.35 94.7255 940.85 95.5922 939.85C96.4589 938.817 97.0755 937.383 97.4422 935.55C97.8422 933.683 98.0422 931.467 98.0422 928.9C98.0422 926.033 97.8589 923.783 97.4922 922.15C97.1255 920.517 96.6255 919.35 95.9922 918.65C95.3589 917.95 94.5922 917.6 93.6922 917.6C92.4922 917.6 91.3922 918.067 90.3922 919C89.4255 919.933 88.8755 921.267 88.7422 923L88.4922 921.25C89.0922 919.35 90.1089 917.917 91.5422 916.95C93.0089 915.95 94.7089 915.45 96.6422 915.45ZM118.823 902.9V920.1C119.656 918.367 120.773 917.167 122.173 916.5C123.606 915.8 125.206 915.45 126.973 915.45C128.406 915.45 129.556 915.633 130.423 916C131.289 916.333 131.973 916.8 132.473 917.4C133.039 918.033 133.439 918.85 133.673 919.85C133.939 920.85 134.073 922.2 134.073 923.9V937.35C134.073 938.75 134.306 939.7 134.773 940.2C135.273 940.7 136.106 940.95 137.273 940.95V942C136.639 941.967 135.673 941.933 134.373 941.9C133.106 941.833 131.873 941.8 130.673 941.8C129.373 941.8 128.106 941.833 126.873 941.9C125.673 941.933 124.773 941.967 124.173 942V940.95C125.173 940.95 125.873 940.7 126.273 940.2C126.673 939.7 126.873 938.75 126.873 937.35V921.8C126.873 920.967 126.789 920.25 126.623 919.65C126.456 919.017 126.139 918.533 125.673 918.2C125.239 917.833 124.606 917.65 123.773 917.65C122.873 917.65 122.039 917.9 121.273 918.4C120.539 918.867 119.939 919.533 119.473 920.4C119.039 921.267 118.823 922.267 118.823 923.4V937.35C118.823 938.75 119.023 939.7 119.423 940.2C119.823 940.7 120.523 940.95 121.523 940.95V942C120.923 941.967 120.039 941.933 118.873 941.9C117.706 941.833 116.523 941.8 115.323 941.8C114.023 941.8 112.706 941.833 111.373 941.9C110.073 941.933 109.089 941.967 108.423 942V940.95C109.589 940.95 110.406 940.7 110.873 940.2C111.373 939.7 111.623 938.75 111.623 937.35V908.9C111.623 907.4 111.389 906.3 110.923 905.6C110.489 904.867 109.656 904.5 108.423 904.5V903.45C109.489 903.55 110.523 903.6 111.523 903.6C112.889 903.6 114.189 903.55 115.423 903.45C116.656 903.317 117.789 903.133 118.823 902.9Z" fill="white"/>
<defs>
<clipPath id="clip0_198_2">
<rect width="489.994" height="489.994" fill="white" transform="translate(149.492 675)"/>
</clipPath>
<clipPath id="clip1_198_2">
<rect width="194" height="212" fill="white" transform="translate(0 522.188) rotate(-0.483464)"/>
</clipPath>
<clipPath id="clip2_198_2">
<rect width="366.929" height="373.777" fill="white" transform="translate(1377.27 638.093) rotate(90.6274)"/>
</clipPath>
<clipPath id="clip3_198_2">
<rect width="190" height="206" fill="white" transform="translate(1875.49 72)"/>
</clipPath>
<clipPath id="clip4_198_2">
<rect width="194" height="212" fill="white" transform="translate(1432.29 591.999) rotate(179.784)"/>
</clipPath>
</defs>
</svg>
